<mxfile host="65bd71144e">
    <diagram id="OfF24DsK68NbZHDL0cIg" name="Page-1">
        <mxGraphModel dx="872" dy="599" grid="1" gridSize="10" guides="1" tooltips="1" connect="1" arrows="1" fold="1" page="1" pageScale="1" pageWidth="850" pageHeight="1100" math="0" shadow="0">
            <root>
                <mxCell id="0"/>
                <mxCell id="1" parent="0"/>
                <mxCell id="205" value="" style="rounded=0;whiteSpace=wrap;html=1;" parent="1" vertex="1">
                    <mxGeometry x="20" y="1200" width="1920" height="1080" as="geometry"/>
                </mxCell>
                <mxCell id="2" value="&lt;font style=&quot;font-size: 16px;&quot;&gt;Movie (page d&#39;info sur les films/séries) on phone and computer&lt;/font&gt;" style="text;html=1;align=center;verticalAlign=middle;resizable=0;points=[];autosize=1;strokeColor=none;fillColor=none;" parent="1" vertex="1">
                    <mxGeometry x="40" y="10" width="470" height="30" as="geometry"/>
                </mxCell>
                <mxCell id="3" value="" style="whiteSpace=wrap;html=1;" parent="1" vertex="1">
                    <mxGeometry x="40" y="40" width="480" height="1000" as="geometry"/>
                </mxCell>
                <mxCell id="4" value="" style="rounded=0;whiteSpace=wrap;html=1;fillColor=#d5e8d4;strokeColor=#82b366;" parent="1" vertex="1">
                    <mxGeometry x="40" y="40" width="480" height="170" as="geometry"/>
                </mxCell>
                <mxCell id="5" value="Search" style="rounded=1;whiteSpace=wrap;html=1;" parent="1" vertex="1">
                    <mxGeometry x="60" y="107.5" width="200" height="35" as="geometry"/>
                </mxCell>
                <mxCell id="6" value="Submit" style="rounded=1;whiteSpace=wrap;html=1;fillColor=#dae8fc;strokeColor=#6c8ebf;strokeWidth=3;" parent="1" vertex="1">
                    <mxGeometry x="270" y="107.5" width="70" height="35" as="geometry"/>
                </mxCell>
                <mxCell id="15" value="" style="sketch=0;outlineConnect=0;fontColor=#232F3E;gradientColor=none;fillColor=#ED7100;strokeColor=none;dashed=0;verticalLabelPosition=bottom;verticalAlign=top;align=center;html=1;fontSize=12;fontStyle=0;aspect=fixed;pointerEvents=1;shape=mxgraph.aws4.container_registry_image;" parent="1" vertex="1">
                    <mxGeometry x="94" y="280" width="120" height="120" as="geometry"/>
                </mxCell>
                <mxCell id="19" value="Title" style="text;html=1;align=center;verticalAlign=middle;whiteSpace=wrap;rounded=0;" parent="1" vertex="1">
                    <mxGeometry x="94" y="240" width="55" height="30" as="geometry"/>
                </mxCell>
                <mxCell id="40" value="login" style="rounded=1;whiteSpace=wrap;html=1;fillColor=#dae8fc;strokeColor=#6c8ebf;strokeWidth=3;" parent="1" vertex="1">
                    <mxGeometry x="360" y="70" width="70" height="35" as="geometry"/>
                </mxCell>
                <mxCell id="41" value="sign up" style="rounded=1;whiteSpace=wrap;html=1;fillColor=#dae8fc;strokeColor=#6c8ebf;strokeWidth=3;" parent="1" vertex="1">
                    <mxGeometry x="440" y="70" width="70" height="35" as="geometry"/>
                </mxCell>
                <mxCell id="42" value="All movies" style="rounded=0;whiteSpace=wrap;html=1;" parent="1" vertex="1">
                    <mxGeometry x="85" y="170" width="130" height="30" as="geometry"/>
                </mxCell>
                <mxCell id="43" value="All series" style="rounded=0;whiteSpace=wrap;html=1;" parent="1" vertex="1">
                    <mxGeometry x="215" y="170" width="130" height="30" as="geometry"/>
                </mxCell>
                <mxCell id="44" value="All actors" style="rounded=0;whiteSpace=wrap;html=1;" parent="1" vertex="1">
                    <mxGeometry x="345" y="170" width="130" height="30" as="geometry"/>
                </mxCell>
                <mxCell id="50" value="" style="sketch=0;html=1;aspect=fixed;strokeColor=none;shadow=0;fillColor=#3B8DF1;verticalAlign=top;labelPosition=center;verticalLabelPosition=bottom;shape=mxgraph.gcp2.globe_world" parent="1" vertex="1">
                    <mxGeometry x="490" y="50" width="15.79" height="15" as="geometry"/>
                </mxCell>
                <mxCell id="51" value="" style="endArrow=classic;html=1;" parent="1" target="52" edge="1">
                    <mxGeometry width="50" height="50" relative="1" as="geometry">
                        <mxPoint x="498" y="50" as="sourcePoint"/>
                        <mxPoint x="548" as="targetPoint"/>
                    </mxGeometry>
                </mxCell>
                <mxCell id="52" value="Change language" style="text;html=1;align=center;verticalAlign=middle;whiteSpace=wrap;rounded=0;" parent="1" vertex="1">
                    <mxGeometry x="490" width="98" height="20" as="geometry"/>
                </mxCell>
                <mxCell id="60" value="" style="verticalLabelPosition=bottom;verticalAlign=top;html=1;shape=mxgraph.basic.star;" parent="1" vertex="1">
                    <mxGeometry x="250" y="280" width="10" height="10" as="geometry"/>
                </mxCell>
                <mxCell id="65" value="" style="verticalLabelPosition=bottom;verticalAlign=top;html=1;shape=mxgraph.basic.star;" parent="1" vertex="1">
                    <mxGeometry x="260" y="280" width="10" height="10" as="geometry"/>
                </mxCell>
                <mxCell id="69" value="" style="verticalLabelPosition=bottom;verticalAlign=top;html=1;shape=mxgraph.basic.star;" parent="1" vertex="1">
                    <mxGeometry x="270" y="280" width="10" height="10" as="geometry"/>
                </mxCell>
                <mxCell id="70" value="" style="verticalLabelPosition=bottom;verticalAlign=top;html=1;shape=mxgraph.basic.star;" parent="1" vertex="1">
                    <mxGeometry x="280" y="280" width="10" height="10" as="geometry"/>
                </mxCell>
                <mxCell id="71" value="" style="verticalLabelPosition=bottom;verticalAlign=top;html=1;shape=mxgraph.basic.star;" parent="1" vertex="1">
                    <mxGeometry x="290" y="280" width="10" height="10" as="geometry"/>
                </mxCell>
                <mxCell id="72" value="&lt;span style=&quot;color: rgb(108, 118, 125);&quot;&gt;■&lt;/span&gt;&lt;span style=&quot;color: rgb(108, 118, 125);&quot;&gt;■&lt;/span&gt;&lt;span style=&quot;color: rgb(108, 118, 125);&quot;&gt;■&lt;/span&gt;&lt;span style=&quot;color: rgb(108, 118, 125);&quot;&gt;■&lt;/span&gt;&lt;span style=&quot;color: rgb(108, 118, 125);&quot;&gt;■&lt;/span&gt;&lt;span style=&quot;color: rgb(108, 118, 125);&quot;&gt;■&lt;/span&gt;&lt;span style=&quot;color: rgb(108, 118, 125);&quot;&gt;■&lt;/span&gt;&lt;span style=&quot;color: rgb(108, 118, 125);&quot;&gt;■&lt;/span&gt;&lt;span style=&quot;color: rgb(108, 118, 125);&quot;&gt;■&lt;/span&gt;&lt;span style=&quot;color: rgb(108, 118, 125);&quot;&gt;■&lt;/span&gt;&lt;span style=&quot;color: rgb(108, 118, 125);&quot;&gt;■&lt;/span&gt;&lt;span style=&quot;color: rgb(108, 118, 125);&quot;&gt;■&lt;/span&gt;&lt;span style=&quot;color: rgb(108, 118, 125);&quot;&gt;■&lt;/span&gt;&lt;span style=&quot;color: rgb(108, 118, 125);&quot;&gt;■&lt;/span&gt;&lt;span style=&quot;color: rgb(108, 118, 125);&quot;&gt;■&lt;/span&gt;&lt;span style=&quot;color: rgb(108, 118, 125);&quot;&gt;■&lt;/span&gt;&lt;span style=&quot;color: rgb(108, 118, 125);&quot;&gt;■&lt;/span&gt;&lt;span style=&quot;color: rgb(108, 118, 125);&quot;&gt;■&lt;/span&gt;&lt;span style=&quot;color: rgb(108, 118, 125);&quot;&gt;■&lt;/span&gt;&lt;span style=&quot;color: rgb(108, 118, 125);&quot;&gt;■&lt;/span&gt;&lt;span style=&quot;color: rgb(108, 118, 125);&quot;&gt;■&lt;/span&gt;&lt;span style=&quot;color: rgb(108, 118, 125);&quot;&gt;■&lt;/span&gt;&lt;div&gt;&lt;span style=&quot;color: rgb(108, 118, 125);&quot;&gt;■&lt;/span&gt;&lt;span style=&quot;color: rgb(108, 118, 125);&quot;&gt;■&lt;/span&gt;&lt;span style=&quot;color: rgb(108, 118, 125);&quot;&gt;■&lt;/span&gt;&lt;span style=&quot;color: rgb(108, 118, 125);&quot;&gt;■&lt;/span&gt;&lt;span style=&quot;color: rgb(108, 118, 125);&quot;&gt;■&lt;/span&gt;&lt;span style=&quot;color: rgb(108, 118, 125);&quot;&gt;■&lt;/span&gt;&lt;span style=&quot;background-color: transparent; color: rgb(108, 118, 125);&quot;&gt;■&lt;/span&gt;&lt;span style=&quot;background-color: transparent; color: rgb(108, 118, 125);&quot;&gt;■&lt;/span&gt;&lt;span style=&quot;background-color: transparent; color: rgb(108, 118, 125);&quot;&gt;■&lt;/span&gt;&lt;span style=&quot;background-color: transparent; color: rgb(108, 118, 125);&quot;&gt;■&lt;/span&gt;&lt;span style=&quot;background-color: transparent; color: rgb(108, 118, 125);&quot;&gt;■&lt;/span&gt;&lt;span style=&quot;background-color: transparent; color: rgb(108, 118, 125);&quot;&gt;■&lt;/span&gt;&lt;span style=&quot;background-color: transparent; color: rgb(108, 118, 125);&quot;&gt;■&lt;/span&gt;&lt;span style=&quot;background-color: transparent; color: rgb(108, 118, 125);&quot;&gt;■&lt;/span&gt;&lt;span style=&quot;background-color: transparent; color: rgb(108, 118, 125);&quot;&gt;■&lt;/span&gt;&lt;span style=&quot;background-color: transparent; color: rgb(108, 118, 125);&quot;&gt;■&lt;/span&gt;&lt;span style=&quot;background-color: transparent; color: rgb(108, 118, 125);&quot;&gt;■&lt;/span&gt;&lt;span style=&quot;background-color: transparent; color: rgb(108, 118, 125);&quot;&gt;■&lt;/span&gt;&lt;span style=&quot;background-color: transparent; color: rgb(108, 118, 125);&quot;&gt;■&lt;/span&gt;&lt;span style=&quot;background-color: transparent; color: rgb(108, 118, 125);&quot;&gt;■&lt;/span&gt;&lt;span style=&quot;background-color: transparent; color: rgb(108, 118, 125);&quot;&gt;■&lt;/span&gt;&lt;span style=&quot;background-color: transparent; color: rgb(108, 118, 125);&quot;&gt;■&lt;/span&gt;&lt;/div&gt;&lt;div&gt;&lt;span style=&quot;color: rgb(108, 118, 125);&quot;&gt;■&lt;/span&gt;&lt;span style=&quot;color: rgb(108, 118, 125);&quot;&gt;■&lt;/span&gt;&lt;span style=&quot;color: rgb(108, 118, 125);&quot;&gt;■&lt;/span&gt;&lt;span style=&quot;color: rgb(108, 118, 125);&quot;&gt;■&lt;/span&gt;&lt;span style=&quot;color: rgb(108, 118, 125);&quot;&gt;■&lt;/span&gt;&lt;span style=&quot;color: rgb(108, 118, 125);&quot;&gt;■&lt;/span&gt;&lt;span style=&quot;background-color: transparent; color: rgb(108, 118, 125);&quot;&gt;■&lt;/span&gt;&lt;span style=&quot;background-color: transparent; color: rgb(108, 118, 125);&quot;&gt;■&lt;/span&gt;&lt;span style=&quot;background-color: transparent; color: rgb(108, 118, 125);&quot;&gt;■&lt;/span&gt;&lt;span style=&quot;background-color: transparent; color: rgb(108, 118, 125);&quot;&gt;■&lt;/span&gt;&lt;span style=&quot;background-color: transparent; color: rgb(108, 118, 125);&quot;&gt;■&lt;/span&gt;&lt;span style=&quot;background-color: transparent; color: rgb(108, 118, 125);&quot;&gt;■&lt;/span&gt;&lt;span style=&quot;background-color: transparent; color: rgb(108, 118, 125);&quot;&gt;■&lt;/span&gt;&lt;span style=&quot;background-color: transparent; color: rgb(108, 118, 125);&quot;&gt;■&lt;/span&gt;&lt;span style=&quot;background-color: transparent; color: rgb(108, 118, 125);&quot;&gt;■&lt;/span&gt;&lt;span style=&quot;background-color: transparent; color: rgb(108, 118, 125);&quot;&gt;■&lt;/span&gt;&lt;span style=&quot;background-color: transparent; color: rgb(108, 118, 125);&quot;&gt;■&lt;/span&gt;&lt;span style=&quot;background-color: transparent; color: rgb(108, 118, 125);&quot;&gt;■&lt;/span&gt;&lt;span style=&quot;background-color: transparent; color: rgb(108, 118, 125);&quot;&gt;■&lt;/span&gt;&lt;span style=&quot;background-color: transparent; color: rgb(108, 118, 125);&quot;&gt;■&lt;/span&gt;&lt;span style=&quot;background-color: transparent; color: rgb(108, 118, 125);&quot;&gt;■&lt;/span&gt;&lt;span style=&quot;background-color: transparent; color: rgb(108, 118, 125);&quot;&gt;■&lt;/span&gt;&lt;/div&gt;&lt;div&gt;&lt;span style=&quot;color: rgb(108, 118, 125);&quot;&gt;■&lt;/span&gt;&lt;span style=&quot;color: rgb(108, 118, 125);&quot;&gt;■&lt;/span&gt;&lt;span style=&quot;color: rgb(108, 118, 125);&quot;&gt;■&lt;/span&gt;&lt;span style=&quot;color: rgb(108, 118, 125);&quot;&gt;■&lt;/span&gt;&lt;span style=&quot;color: rgb(108, 118, 125);&quot;&gt;■&lt;/span&gt;&lt;span style=&quot;color: rgb(108, 118, 125);&quot;&gt;■&lt;/span&gt;&lt;span style=&quot;background-color: transparent; color: rgb(108, 118, 125);&quot;&gt;■&lt;/span&gt;&lt;span style=&quot;background-color: transparent; color: rgb(108, 118, 125);&quot;&gt;■&lt;/span&gt;&lt;span style=&quot;background-color: transparent; color: rgb(108, 118, 125);&quot;&gt;■&lt;/span&gt;&lt;span style=&quot;background-color: transparent; color: rgb(108, 118, 125);&quot;&gt;■&lt;/span&gt;&lt;span style=&quot;background-color: transparent; color: rgb(108, 118, 125);&quot;&gt;■&lt;/span&gt;&lt;span style=&quot;background-color: transparent; color: rgb(108, 118, 125);&quot;&gt;■&lt;/span&gt;&lt;span style=&quot;background-color: transparent; color: rgb(108, 118, 125);&quot;&gt;■&lt;/span&gt;&lt;span style=&quot;background-color: transparent; color: rgb(108, 118, 125);&quot;&gt;■&lt;/span&gt;&lt;span style=&quot;background-color: transparent; color: rgb(108, 118, 125);&quot;&gt;■&lt;/span&gt;&lt;span style=&quot;background-color: transparent; color: rgb(108, 118, 125);&quot;&gt;■&lt;/span&gt;&lt;span style=&quot;background-color: transparent; color: rgb(108, 118, 125);&quot;&gt;■&lt;/span&gt;&lt;span style=&quot;background-color: transparent; color: rgb(108, 118, 125);&quot;&gt;■&lt;/span&gt;&lt;span style=&quot;background-color: transparent; color: rgb(108, 118, 125);&quot;&gt;■&lt;/span&gt;&lt;span style=&quot;background-color: transparent; color: rgb(108, 118, 125);&quot;&gt;■&lt;/span&gt;&lt;span style=&quot;background-color: transparent; color: rgb(108, 118, 125);&quot;&gt;■&lt;/span&gt;&lt;span style=&quot;background-color: transparent; color: rgb(108, 118, 125);&quot;&gt;■&lt;/span&gt;&lt;/div&gt;&lt;div&gt;&lt;span style=&quot;color: rgb(108, 118, 125);&quot;&gt;■&lt;/span&gt;&lt;span style=&quot;color: rgb(108, 118, 125);&quot;&gt;■&lt;/span&gt;&lt;span style=&quot;color: rgb(108, 118, 125);&quot;&gt;■&lt;/span&gt;&lt;span style=&quot;color: rgb(108, 118, 125);&quot;&gt;■&lt;/span&gt;&lt;span style=&quot;color: rgb(108, 118, 125);&quot;&gt;■&lt;/span&gt;&lt;span style=&quot;color: rgb(108, 118, 125);&quot;&gt;■&lt;/span&gt;&lt;span style=&quot;background-color: transparent; color: rgb(108, 118, 125);&quot;&gt;■&lt;/span&gt;&lt;span style=&quot;background-color: transparent; color: rgb(108, 118, 125);&quot;&gt;■&lt;/span&gt;&lt;span style=&quot;background-color: transparent; color: rgb(108, 118, 125);&quot;&gt;■&lt;/span&gt;&lt;span style=&quot;background-color: transparent; color: rgb(108, 118, 125);&quot;&gt;■&lt;/span&gt;&lt;span style=&quot;background-color: transparent; color: rgb(108, 118, 125);&quot;&gt;■&lt;/span&gt;&lt;span style=&quot;background-color: transparent; color: rgb(108, 118, 125);&quot;&gt;■&lt;/span&gt;&lt;span style=&quot;background-color: transparent; color: rgb(108, 118, 125);&quot;&gt;■&lt;/span&gt;&lt;span style=&quot;background-color: transparent; color: rgb(108, 118, 125);&quot;&gt;■&lt;/span&gt;&lt;span style=&quot;background-color: transparent; color: rgb(108, 118, 125);&quot;&gt;■&lt;/span&gt;&lt;span style=&quot;background-color: transparent; color: rgb(108, 118, 125);&quot;&gt;■&lt;/span&gt;&lt;span style=&quot;background-color: transparent; color: rgb(108, 118, 125);&quot;&gt;■&lt;/span&gt;&lt;span style=&quot;background-color: transparent; color: rgb(108, 118, 125);&quot;&gt;■&lt;/span&gt;&lt;span style=&quot;background-color: transparent; color: rgb(108, 118, 125);&quot;&gt;■&lt;/span&gt;&lt;span style=&quot;background-color: transparent; color: rgb(108, 118, 125);&quot;&gt;■&lt;/span&gt;&lt;span style=&quot;background-color: transparent; color: rgb(108, 118, 125);&quot;&gt;■&lt;/span&gt;&lt;span style=&quot;background-color: transparent; color: rgb(108, 118, 125);&quot;&gt;■&lt;/span&gt;&lt;/div&gt;" style="html=1;shadow=0;dashed=0;shape=mxgraph.bootstrap.rrect;rSize=5;strokeColor=#999999;strokeWidth=1;fillColor=#FFFFFF;fontColor=#6C767D;whiteSpace=wrap;align=left;verticalAlign=middle;spacingLeft=10;fontSize=14;spacing=10;" parent="1" vertex="1">
                    <mxGeometry x="250" y="310" width="220" height="90" as="geometry"/>
                </mxCell>
                <mxCell id="75" value="" style="group" parent="1" vertex="1" connectable="0">
                    <mxGeometry x="110" y="460" width="80" height="80" as="geometry"/>
                </mxCell>
                <mxCell id="74" value="" style="ellipse;whiteSpace=wrap;html=1;aspect=fixed;" parent="75" vertex="1">
                    <mxGeometry width="80" height="80" as="geometry"/>
                </mxCell>
                <mxCell id="73" value="" style="shape=umlActor;verticalLabelPosition=bottom;verticalAlign=top;html=1;outlineConnect=0;" parent="75" vertex="1">
                    <mxGeometry x="25" y="10" width="30" height="60" as="geometry"/>
                </mxCell>
                <mxCell id="76" value="" style="group" parent="1" vertex="1" connectable="0">
                    <mxGeometry x="200" y="460" width="80" height="80" as="geometry"/>
                </mxCell>
                <mxCell id="77" value="" style="ellipse;whiteSpace=wrap;html=1;aspect=fixed;" parent="76" vertex="1">
                    <mxGeometry width="80" height="80" as="geometry"/>
                </mxCell>
                <mxCell id="78" value="" style="shape=umlActor;verticalLabelPosition=bottom;verticalAlign=top;html=1;outlineConnect=0;" parent="76" vertex="1">
                    <mxGeometry x="25" y="10" width="30" height="60" as="geometry"/>
                </mxCell>
                <mxCell id="85" value="" style="group" parent="1" vertex="1" connectable="0">
                    <mxGeometry x="290" y="460" width="80" height="80" as="geometry"/>
                </mxCell>
                <mxCell id="86" value="" style="ellipse;whiteSpace=wrap;html=1;aspect=fixed;" parent="85" vertex="1">
                    <mxGeometry width="80" height="80" as="geometry"/>
                </mxCell>
                <mxCell id="87" value="" style="shape=umlActor;verticalLabelPosition=bottom;verticalAlign=top;html=1;outlineConnect=0;" parent="85" vertex="1">
                    <mxGeometry x="25" y="10" width="30" height="60" as="geometry"/>
                </mxCell>
                <mxCell id="88" value="" style="group" parent="1" vertex="1" connectable="0">
                    <mxGeometry x="380" y="460" width="80" height="80" as="geometry"/>
                </mxCell>
                <mxCell id="89" value="" style="ellipse;whiteSpace=wrap;html=1;aspect=fixed;" parent="88" vertex="1">
                    <mxGeometry width="80" height="80" as="geometry"/>
                </mxCell>
                <mxCell id="90" value="" style="shape=umlActor;verticalLabelPosition=bottom;verticalAlign=top;html=1;outlineConnect=0;" parent="88" vertex="1">
                    <mxGeometry x="25" y="10" width="30" height="60" as="geometry"/>
                </mxCell>
                <mxCell id="91" value="Actors" style="text;html=1;align=center;verticalAlign=middle;whiteSpace=wrap;rounded=0;" parent="1" vertex="1">
                    <mxGeometry x="94" y="420" width="55" height="30" as="geometry"/>
                </mxCell>
                <mxCell id="95" value="" style="html=1;verticalLabelPosition=bottom;labelBackgroundColor=#ffffff;verticalAlign=top;shadow=0;dashed=0;strokeWidth=2;shape=mxgraph.ios7.misc.right;strokeColor=#0080f0;" parent="1" vertex="1">
                    <mxGeometry x="480" y="474.25" width="16" height="51.5" as="geometry"/>
                </mxCell>
                <mxCell id="96" value="" style="html=1;verticalLabelPosition=bottom;labelBackgroundColor=#ffffff;verticalAlign=top;shadow=0;dashed=0;strokeWidth=2;shape=mxgraph.ios7.misc.right;strokeColor=#0080f0;direction=west;" parent="1" vertex="1">
                    <mxGeometry x="69" y="474.25" width="16" height="51.5" as="geometry"/>
                </mxCell>
                <mxCell id="100" style="edgeStyle=none;html=1;" parent="1" source="97" target="101" edge="1">
                    <mxGeometry relative="1" as="geometry">
                        <mxPoint x="570" y="797" as="targetPoint"/>
                    </mxGeometry>
                </mxCell>
                <mxCell id="97" value="" style="rounded=0;whiteSpace=wrap;html=1;" parent="1" vertex="1">
                    <mxGeometry x="85" y="800" width="385" height="80" as="geometry"/>
                </mxCell>
                <mxCell id="98" value="Submit" style="rounded=1;whiteSpace=wrap;html=1;fillColor=#dae8fc;strokeColor=#6c8ebf;strokeWidth=3;" parent="1" vertex="1">
                    <mxGeometry x="400" y="890" width="70" height="35" as="geometry"/>
                </mxCell>
                <mxCell id="99" value="Post Comment" style="text;html=1;align=center;verticalAlign=middle;whiteSpace=wrap;rounded=0;" parent="1" vertex="1">
                    <mxGeometry x="94" y="770" width="86" height="30" as="geometry"/>
                </mxCell>
                <mxCell id="101" value="Available only if connected" style="text;html=1;align=center;verticalAlign=middle;whiteSpace=wrap;rounded=0;" parent="1" vertex="1">
                    <mxGeometry x="560" y="770" width="150" height="30" as="geometry"/>
                </mxCell>
                <mxCell id="102" value="" style="rounded=0;whiteSpace=wrap;html=1;fillColor=#d5e8d4;strokeColor=#82b366;" parent="1" vertex="1">
                    <mxGeometry x="40" y="960" width="480" height="80" as="geometry"/>
                </mxCell>
                <mxCell id="103" value="copyrights" style="rounded=0;whiteSpace=wrap;html=1;" parent="1" vertex="1">
                    <mxGeometry x="210" y="1015" width="140" height="20" as="geometry"/>
                </mxCell>
                <mxCell id="104" value="about" style="rounded=0;whiteSpace=wrap;html=1;" parent="1" vertex="1">
                    <mxGeometry x="60" y="974" width="300" height="30" as="geometry"/>
                </mxCell>
                <mxCell id="105" value="" style="dashed=0;outlineConnect=0;html=1;align=center;labelPosition=center;verticalLabelPosition=bottom;verticalAlign=top;shape=mxgraph.webicons.facebook;fillColor=#6294E4;gradientColor=#1A2665" parent="1" vertex="1">
                    <mxGeometry x="422" y="980" width="40" height="40" as="geometry"/>
                </mxCell>
                <mxCell id="106" value="" style="dashed=0;outlineConnect=0;html=1;align=center;labelPosition=center;verticalLabelPosition=bottom;verticalAlign=top;shape=mxgraph.weblogos.instagram;fillColor=#6FC0E4;gradientColor=#1E305B" parent="1" vertex="1">
                    <mxGeometry x="372" y="980" width="40" height="40" as="geometry"/>
                </mxCell>
                <mxCell id="107" value="" style="dashed=0;outlineConnect=0;html=1;align=center;labelPosition=center;verticalLabelPosition=bottom;verticalAlign=top;shape=mxgraph.webicons.twitter;fillColor=#49EAF7;strokeColor=none;gradientColor=#137BD0;" parent="1" vertex="1">
                    <mxGeometry x="470" y="980" width="40" height="40" as="geometry"/>
                </mxCell>
                <mxCell id="114" value="" style="strokeColor=#999999;verticalLabelPosition=bottom;shadow=0;dashed=0;verticalAlign=top;strokeWidth=2;html=1;shape=mxgraph.mockup.misc.copyrightIcon;" parent="1" vertex="1">
                    <mxGeometry x="214" y="1017.5" width="15" height="15" as="geometry"/>
                </mxCell>
                <mxCell id="116" value="" style="rounded=0;whiteSpace=wrap;html=1;fillColor=#d5e8d4;strokeColor=#82b366;" parent="1" vertex="1">
                    <mxGeometry x="20" y="1200" width="1920" height="300" as="geometry"/>
                </mxCell>
                <mxCell id="117" value="" style="rounded=0;whiteSpace=wrap;html=1;fillColor=#d5e8d4;strokeColor=#82b366;" parent="1" vertex="1">
                    <mxGeometry x="20" y="2080" width="1920" height="200" as="geometry"/>
                </mxCell>
                <mxCell id="118" value="&lt;font style=&quot;font-size: 30px;&quot;&gt;Search&lt;/font&gt;" style="rounded=1;whiteSpace=wrap;html=1;" parent="1" vertex="1">
                    <mxGeometry x="545" y="1305" width="650" height="90" as="geometry"/>
                </mxCell>
                <mxCell id="119" value="&lt;font style=&quot;font-size: 30px;&quot;&gt;Submit&lt;/font&gt;" style="rounded=1;whiteSpace=wrap;html=1;fillColor=#dae8fc;strokeColor=#6c8ebf;strokeWidth=3;" parent="1" vertex="1">
                    <mxGeometry x="1215" y="1305" width="200" height="90" as="geometry"/>
                </mxCell>
                <mxCell id="120" value="&lt;font style=&quot;font-size: 20px;&quot;&gt;login&lt;/font&gt;" style="rounded=1;whiteSpace=wrap;html=1;fillColor=#dae8fc;strokeColor=#6c8ebf;strokeWidth=3;" parent="1" vertex="1">
                    <mxGeometry x="1690" y="1240" width="90" height="50" as="geometry"/>
                </mxCell>
                <mxCell id="121" value="&lt;font style=&quot;font-size: 20px;&quot;&gt;sign up&lt;/font&gt;" style="rounded=1;whiteSpace=wrap;html=1;fillColor=#dae8fc;strokeColor=#6c8ebf;strokeWidth=3;" parent="1" vertex="1">
                    <mxGeometry x="1800" y="1240" width="90" height="50" as="geometry"/>
                </mxCell>
                <mxCell id="122" value="" style="endArrow=classic;html=1;" parent="1" target="123" edge="1">
                    <mxGeometry width="50" height="50" relative="1" as="geometry">
                        <mxPoint x="1918" y="1210" as="sourcePoint"/>
                        <mxPoint x="1968" y="1160" as="targetPoint"/>
                    </mxGeometry>
                </mxCell>
                <mxCell id="123" value="Change language" style="text;html=1;align=center;verticalAlign=middle;whiteSpace=wrap;rounded=0;" parent="1" vertex="1">
                    <mxGeometry x="1910" y="1160" width="98" height="20" as="geometry"/>
                </mxCell>
                <mxCell id="124" value="" style="sketch=0;html=1;aspect=fixed;strokeColor=none;shadow=0;fillColor=#3B8DF1;verticalAlign=top;labelPosition=center;verticalLabelPosition=bottom;shape=mxgraph.gcp2.globe_world" parent="1" vertex="1">
                    <mxGeometry x="1900" y="1210" width="25.79" height="24.5" as="geometry"/>
                </mxCell>
                <mxCell id="125" value="&lt;font style=&quot;font-size: 40px;&quot;&gt;All movies&lt;/font&gt;" style="rounded=1;whiteSpace=wrap;html=1;fillColor=#dae8fc;strokeColor=#6c8ebf;strokeWidth=3;" parent="1" vertex="1">
                    <mxGeometry x="20" y="1500" width="640" height="100" as="geometry"/>
                </mxCell>
                <mxCell id="126" value="&lt;font style=&quot;font-size: 40px;&quot;&gt;All series&lt;/font&gt;" style="rounded=1;whiteSpace=wrap;html=1;fillColor=#dae8fc;strokeColor=#6c8ebf;strokeWidth=3;" parent="1" vertex="1">
                    <mxGeometry x="660" y="1500" width="640" height="100" as="geometry"/>
                </mxCell>
                <mxCell id="127" value="&lt;font style=&quot;font-size: 40px;&quot;&gt;All actors&lt;/font&gt;" style="rounded=1;whiteSpace=wrap;html=1;fillColor=#dae8fc;strokeColor=#6c8ebf;strokeWidth=3;" parent="1" vertex="1">
                    <mxGeometry x="1300" y="1500" width="640" height="100" as="geometry"/>
                </mxCell>
                <mxCell id="167" value="" style="dashed=0;outlineConnect=0;html=1;align=center;labelPosition=center;verticalLabelPosition=bottom;verticalAlign=top;shape=mxgraph.webicons.facebook;fillColor=#6294E4;gradientColor=#1A2665" parent="1" vertex="1">
                    <mxGeometry x="1815.79" y="2210" width="50" height="50" as="geometry"/>
                </mxCell>
                <mxCell id="168" value="" style="dashed=0;outlineConnect=0;html=1;align=center;labelPosition=center;verticalLabelPosition=bottom;verticalAlign=top;shape=mxgraph.weblogos.instagram;fillColor=#6FC0E4;gradientColor=#1E305B" parent="1" vertex="1">
                    <mxGeometry x="1755.79" y="2210" width="50" height="50" as="geometry"/>
                </mxCell>
                <mxCell id="169" value="" style="dashed=0;outlineConnect=0;html=1;align=center;labelPosition=center;verticalLabelPosition=bottom;verticalAlign=top;shape=mxgraph.webicons.twitter;fillColor=#49EAF7;strokeColor=none;gradientColor=#137BD0;" parent="1" vertex="1">
                    <mxGeometry x="1875.79" y="2210" width="50" height="50" as="geometry"/>
                </mxCell>
                <mxCell id="170" value="copyrights" style="rounded=0;whiteSpace=wrap;html=1;" parent="1" vertex="1">
                    <mxGeometry x="877.5" y="2212.5" width="205" height="47.5" as="geometry"/>
                </mxCell>
                <mxCell id="171" value="" style="strokeColor=#999999;verticalLabelPosition=bottom;shadow=0;dashed=0;verticalAlign=top;strokeWidth=2;html=1;shape=mxgraph.mockup.misc.copyrightIcon;" parent="1" vertex="1">
                    <mxGeometry x="897.5" y="2223.75" width="25" height="25" as="geometry"/>
                </mxCell>
                <mxCell id="172" value="about" style="rounded=0;whiteSpace=wrap;html=1;" parent="1" vertex="1">
                    <mxGeometry x="680" y="2120" width="600" height="60" as="geometry"/>
                </mxCell>
                <mxCell id="173" value="&lt;font style=&quot;font-size: 16px;&quot;&gt;&lt;span style=&quot;color: rgb(63, 63, 63);&quot;&gt;Movie (page d&#39;info sur les films/séries)&amp;nbsp;&lt;/span&gt;on computer -&amp;gt; Won&#39;t use it probably&lt;/font&gt;" style="text;html=1;align=center;verticalAlign=middle;resizable=0;points=[];autosize=1;strokeColor=none;fillColor=none;" parent="1" vertex="1">
                    <mxGeometry x="20" y="1170" width="560" height="30" as="geometry"/>
                </mxCell>
                <mxCell id="174" value="" style="sketch=0;outlineConnect=0;fontColor=#232F3E;gradientColor=none;fillColor=#ED7100;strokeColor=none;dashed=0;verticalLabelPosition=bottom;verticalAlign=top;align=center;html=1;fontSize=12;fontStyle=0;aspect=fixed;pointerEvents=1;shape=mxgraph.aws4.container_registry_image;" parent="1" vertex="1">
                    <mxGeometry x="165" y="1683" width="330" height="330" as="geometry"/>
                </mxCell>
                <mxCell id="175" value="&lt;font style=&quot;font-size: 30px;&quot;&gt;Title&lt;/font&gt;" style="text;html=1;align=center;verticalAlign=middle;whiteSpace=wrap;rounded=0;" parent="1" vertex="1">
                    <mxGeometry x="302.5" y="1630" width="55" height="30" as="geometry"/>
                </mxCell>
                <mxCell id="180" value="" style="verticalLabelPosition=bottom;verticalAlign=top;html=1;shape=mxgraph.basic.star;" parent="1" vertex="1">
                    <mxGeometry x="570" y="1690" width="30" height="30" as="geometry"/>
                </mxCell>
                <mxCell id="181" value="&lt;span style=&quot;color: rgb(108, 118, 125);&quot;&gt;■&lt;/span&gt;&lt;span style=&quot;color: rgb(108, 118, 125);&quot;&gt;■&lt;/span&gt;&lt;span style=&quot;color: rgb(108, 118, 125);&quot;&gt;■&lt;/span&gt;&lt;span style=&quot;color: rgb(108, 118, 125);&quot;&gt;■&lt;/span&gt;&lt;span style=&quot;color: rgb(108, 118, 125);&quot;&gt;■&lt;/span&gt;&lt;span style=&quot;color: rgb(108, 118, 125);&quot;&gt;■&lt;/span&gt;&lt;span style=&quot;color: rgb(108, 118, 125);&quot;&gt;■&lt;/span&gt;&lt;span style=&quot;color: rgb(108, 118, 125);&quot;&gt;■&lt;/span&gt;&lt;span style=&quot;color: rgb(108, 118, 125);&quot;&gt;■&lt;/span&gt;&lt;span style=&quot;color: rgb(108, 118, 125);&quot;&gt;■&lt;/span&gt;&lt;span style=&quot;color: rgb(108, 118, 125);&quot;&gt;■&lt;/span&gt;&lt;span style=&quot;color: rgb(108, 118, 125);&quot;&gt;■&lt;/span&gt;&lt;span style=&quot;color: rgb(108, 118, 125);&quot;&gt;■&lt;/span&gt;&lt;span style=&quot;color: rgb(108, 118, 125);&quot;&gt;■&lt;/span&gt;&lt;span style=&quot;color: rgb(108, 118, 125);&quot;&gt;■&lt;/span&gt;&lt;span style=&quot;color: rgb(108, 118, 125);&quot;&gt;■&lt;/span&gt;&lt;span style=&quot;color: rgb(108, 118, 125);&quot;&gt;■&lt;/span&gt;&lt;span style=&quot;color: rgb(108, 118, 125);&quot;&gt;■&lt;/span&gt;&lt;span style=&quot;color: rgb(108, 118, 125);&quot;&gt;■&lt;/span&gt;&lt;span style=&quot;color: rgb(108, 118, 125);&quot;&gt;■&lt;/span&gt;&lt;span style=&quot;color: rgb(108, 118, 125);&quot;&gt;■&lt;/span&gt;&lt;span style=&quot;color: rgb(108, 118, 125);&quot;&gt;■&lt;/span&gt;&lt;span style=&quot;color: rgb(108, 118, 125);&quot;&gt;■&lt;/span&gt;&lt;span style=&quot;color: rgb(108, 118, 125);&quot;&gt;■&lt;/span&gt;&lt;span style=&quot;color: rgb(108, 118, 125);&quot;&gt;■&lt;/span&gt;&lt;span style=&quot;color: rgb(108, 118, 125);&quot;&gt;■&lt;/span&gt;&lt;span style=&quot;color: rgb(108, 118, 125);&quot;&gt;■&lt;/span&gt;&lt;span style=&quot;color: rgb(108, 118, 125);&quot;&gt;■&lt;/span&gt;&lt;span style=&quot;color: rgb(108, 118, 125);&quot;&gt;■&lt;/span&gt;&lt;span style=&quot;color: rgb(108, 118, 125);&quot;&gt;■&lt;/span&gt;&lt;span style=&quot;color: rgb(108, 118, 125);&quot;&gt;■&lt;/span&gt;&lt;span style=&quot;color: rgb(108, 118, 125);&quot;&gt;■&lt;/span&gt;&lt;span style=&quot;color: rgb(108, 118, 125);&quot;&gt;■&lt;/span&gt;&lt;span style=&quot;color: rgb(108, 118, 125);&quot;&gt;■&lt;/span&gt;&lt;span style=&quot;color: rgb(108, 118, 125);&quot;&gt;■&lt;/span&gt;&lt;span style=&quot;color: rgb(108, 118, 125);&quot;&gt;■&lt;/span&gt;&lt;div&gt;&lt;span style=&quot;color: rgb(108, 118, 125);&quot;&gt;&lt;span style=&quot;color: rgb(108, 118, 125);&quot;&gt;■&lt;/span&gt;&lt;span style=&quot;color: rgb(108, 118, 125);&quot;&gt;■&lt;/span&gt;&lt;span style=&quot;color: rgb(108, 118, 125);&quot;&gt;■&lt;/span&gt;&lt;span style=&quot;color: rgb(108, 118, 125);&quot;&gt;■&lt;/span&gt;&lt;span style=&quot;color: rgb(108, 118, 125);&quot;&gt;■&lt;/span&gt;&lt;span style=&quot;color: rgb(108, 118, 125);&quot;&gt;■&lt;/span&gt;&lt;span style=&quot;color: rgb(108, 118, 125);&quot;&gt;■&lt;/span&gt;&lt;span style=&quot;color: rgb(108, 118, 125);&quot;&gt;■&lt;/span&gt;&lt;span style=&quot;color: rgb(108, 118, 125);&quot;&gt;■&lt;/span&gt;&lt;span style=&quot;color: rgb(108, 118, 125);&quot;&gt;■&lt;/span&gt;&lt;span style=&quot;color: rgb(108, 118, 125);&quot;&gt;■&lt;/span&gt;&lt;span style=&quot;color: rgb(108, 118, 125);&quot;&gt;■&lt;/span&gt;&lt;span style=&quot;color: rgb(108, 118, 125);&quot;&gt;■&lt;/span&gt;&lt;span style=&quot;color: rgb(108, 118, 125);&quot;&gt;■&lt;/span&gt;&lt;span style=&quot;color: rgb(108, 118, 125);&quot;&gt;■&lt;/span&gt;&lt;span style=&quot;color: rgb(108, 118, 125);&quot;&gt;■&lt;/span&gt;&lt;span style=&quot;color: rgb(108, 118, 125);&quot;&gt;■&lt;/span&gt;&lt;span style=&quot;color: rgb(108, 118, 125);&quot;&gt;■&lt;/span&gt;&lt;span style=&quot;color: rgb(108, 118, 125);&quot;&gt;■&lt;/span&gt;&lt;span style=&quot;color: rgb(108, 118, 125);&quot;&gt;■&lt;/span&gt;&lt;span style=&quot;color: rgb(108, 118, 125);&quot;&gt;■&lt;/span&gt;&lt;span style=&quot;color: rgb(108, 118, 125);&quot;&gt;■&lt;/span&gt;&lt;span style=&quot;color: rgb(108, 118, 125);&quot;&gt;■&lt;/span&gt;&lt;span style=&quot;color: rgb(108, 118, 125);&quot;&gt;■&lt;/span&gt;&lt;span style=&quot;color: rgb(108, 118, 125);&quot;&gt;■&lt;/span&gt;&lt;span style=&quot;color: rgb(108, 118, 125);&quot;&gt;■&lt;/span&gt;&lt;span style=&quot;color: rgb(108, 118, 125);&quot;&gt;■&lt;/span&gt;&lt;span style=&quot;color: rgb(108, 118, 125);&quot;&gt;■&lt;/span&gt;&lt;span style=&quot;color: rgb(108, 118, 125);&quot;&gt;■&lt;/span&gt;&lt;span style=&quot;color: rgb(108, 118, 125);&quot;&gt;■&lt;/span&gt;&lt;span style=&quot;color: rgb(108, 118, 125);&quot;&gt;■&lt;/span&gt;&lt;span style=&quot;color: rgb(108, 118, 125);&quot;&gt;■&lt;/span&gt;&lt;span style=&quot;color: rgb(108, 118, 125);&quot;&gt;■&lt;/span&gt;&lt;span style=&quot;color: rgb(108, 118, 125);&quot;&gt;■&lt;/span&gt;&lt;span style=&quot;color: rgb(108, 118, 125);&quot;&gt;■&lt;/span&gt;&lt;span style=&quot;color: rgb(108, 118, 125);&quot;&gt;■&lt;/span&gt;&lt;/span&gt;&lt;/div&gt;&lt;div&gt;&lt;span style=&quot;color: rgb(108, 118, 125);&quot;&gt;&lt;span style=&quot;color: rgb(108, 118, 125);&quot;&gt;&lt;span style=&quot;color: rgb(108, 118, 125);&quot;&gt;■&lt;/span&gt;&lt;span style=&quot;color: rgb(108, 118, 125);&quot;&gt;■&lt;/span&gt;&lt;span style=&quot;color: rgb(108, 118, 125);&quot;&gt;■&lt;/span&gt;&lt;span style=&quot;color: rgb(108, 118, 125);&quot;&gt;■&lt;/span&gt;&lt;span style=&quot;color: rgb(108, 118, 125);&quot;&gt;■&lt;/span&gt;&lt;span style=&quot;color: rgb(108, 118, 125);&quot;&gt;■&lt;/span&gt;&lt;span style=&quot;color: rgb(108, 118, 125);&quot;&gt;■&lt;/span&gt;&lt;span style=&quot;color: rgb(108, 118, 125);&quot;&gt;■&lt;/span&gt;&lt;span style=&quot;color: rgb(108, 118, 125);&quot;&gt;■&lt;/span&gt;&lt;span style=&quot;color: rgb(108, 118, 125);&quot;&gt;■&lt;/span&gt;&lt;span style=&quot;color: rgb(108, 118, 125);&quot;&gt;■&lt;/span&gt;&lt;span style=&quot;color: rgb(108, 118, 125);&quot;&gt;■&lt;/span&gt;&lt;span style=&quot;color: rgb(108, 118, 125);&quot;&gt;■&lt;/span&gt;&lt;span style=&quot;color: rgb(108, 118, 125);&quot;&gt;■&lt;/span&gt;&lt;span style=&quot;color: rgb(108, 118, 125);&quot;&gt;■&lt;/span&gt;&lt;span style=&quot;color: rgb(108, 118, 125);&quot;&gt;■&lt;/span&gt;&lt;span style=&quot;color: rgb(108, 118, 125);&quot;&gt;■&lt;/span&gt;&lt;span style=&quot;color: rgb(108, 118, 125);&quot;&gt;■&lt;/span&gt;&lt;span style=&quot;color: rgb(108, 118, 125);&quot;&gt;■&lt;/span&gt;&lt;span style=&quot;color: rgb(108, 118, 125);&quot;&gt;■&lt;/span&gt;&lt;span style=&quot;color: rgb(108, 118, 125);&quot;&gt;■&lt;/span&gt;&lt;span style=&quot;color: rgb(108, 118, 125);&quot;&gt;■&lt;/span&gt;&lt;span style=&quot;color: rgb(108, 118, 125);&quot;&gt;■&lt;/span&gt;&lt;span style=&quot;color: rgb(108, 118, 125);&quot;&gt;■&lt;/span&gt;&lt;span style=&quot;color: rgb(108, 118, 125);&quot;&gt;■&lt;/span&gt;&lt;span style=&quot;color: rgb(108, 118, 125);&quot;&gt;■&lt;/span&gt;&lt;span style=&quot;color: rgb(108, 118, 125);&quot;&gt;■&lt;/span&gt;&lt;span style=&quot;color: rgb(108, 118, 125);&quot;&gt;■&lt;/span&gt;&lt;span style=&quot;color: rgb(108, 118, 125);&quot;&gt;■&lt;/span&gt;&lt;span style=&quot;color: rgb(108, 118, 125);&quot;&gt;■&lt;/span&gt;&lt;span style=&quot;color: rgb(108, 118, 125);&quot;&gt;■&lt;/span&gt;&lt;span style=&quot;color: rgb(108, 118, 125);&quot;&gt;■&lt;/span&gt;&lt;span style=&quot;color: rgb(108, 118, 125);&quot;&gt;■&lt;/span&gt;&lt;span style=&quot;color: rgb(108, 118, 125);&quot;&gt;■&lt;/span&gt;&lt;span style=&quot;color: rgb(108, 118, 125);&quot;&gt;■&lt;/span&gt;&lt;span style=&quot;color: rgb(108, 118, 125);&quot;&gt;■&lt;/span&gt;&lt;/span&gt;&lt;/span&gt;&lt;/div&gt;&lt;div&gt;&lt;span style=&quot;color: rgb(108, 118, 125);&quot;&gt;&lt;span style=&quot;color: rgb(108, 118, 125);&quot;&gt;&lt;span style=&quot;color: rgb(108, 118, 125);&quot;&gt;&lt;span style=&quot;color: rgb(108, 118, 125);&quot;&gt;■&lt;/span&gt;&lt;span style=&quot;color: rgb(108, 118, 125);&quot;&gt;■&lt;/span&gt;&lt;span style=&quot;color: rgb(108, 118, 125);&quot;&gt;■&lt;/span&gt;&lt;span style=&quot;color: rgb(108, 118, 125);&quot;&gt;■&lt;/span&gt;&lt;span style=&quot;color: rgb(108, 118, 125);&quot;&gt;■&lt;/span&gt;&lt;span style=&quot;color: rgb(108, 118, 125);&quot;&gt;■&lt;/span&gt;&lt;span style=&quot;color: rgb(108, 118, 125);&quot;&gt;■&lt;/span&gt;&lt;span style=&quot;color: rgb(108, 118, 125);&quot;&gt;■&lt;/span&gt;&lt;span style=&quot;color: rgb(108, 118, 125);&quot;&gt;■&lt;/span&gt;&lt;span style=&quot;color: rgb(108, 118, 125);&quot;&gt;■&lt;/span&gt;&lt;span style=&quot;color: rgb(108, 118, 125);&quot;&gt;■&lt;/span&gt;&lt;span style=&quot;color: rgb(108, 118, 125);&quot;&gt;■&lt;/span&gt;&lt;span style=&quot;color: rgb(108, 118, 125);&quot;&gt;■&lt;/span&gt;&lt;span style=&quot;color: rgb(108, 118, 125);&quot;&gt;■&lt;/span&gt;&lt;span style=&quot;color: rgb(108, 118, 125);&quot;&gt;■&lt;/span&gt;&lt;span style=&quot;color: rgb(108, 118, 125);&quot;&gt;■&lt;/span&gt;&lt;span style=&quot;color: rgb(108, 118, 125);&quot;&gt;■&lt;/span&gt;&lt;span style=&quot;color: rgb(108, 118, 125);&quot;&gt;■&lt;/span&gt;&lt;span style=&quot;color: rgb(108, 118, 125);&quot;&gt;■&lt;/span&gt;&lt;span style=&quot;color: rgb(108, 118, 125);&quot;&gt;■&lt;/span&gt;&lt;span style=&quot;color: rgb(108, 118, 125);&quot;&gt;■&lt;/span&gt;&lt;span style=&quot;color: rgb(108, 118, 125);&quot;&gt;■&lt;/span&gt;&lt;span style=&quot;color: rgb(108, 118, 125);&quot;&gt;■&lt;/span&gt;&lt;span style=&quot;color: rgb(108, 118, 125);&quot;&gt;■&lt;/span&gt;&lt;span style=&quot;color: rgb(108, 118, 125);&quot;&gt;■&lt;/span&gt;&lt;span style=&quot;color: rgb(108, 118, 125);&quot;&gt;■&lt;/span&gt;&lt;span style=&quot;color: rgb(108, 118, 125);&quot;&gt;■&lt;/span&gt;&lt;span style=&quot;color: rgb(108, 118, 125);&quot;&gt;■&lt;/span&gt;&lt;span style=&quot;color: rgb(108, 118, 125);&quot;&gt;■&lt;/span&gt;&lt;span style=&quot;color: rgb(108, 118, 125);&quot;&gt;■&lt;/span&gt;&lt;span style=&quot;color: rgb(108, 118, 125);&quot;&gt;■&lt;/span&gt;&lt;span style=&quot;color: rgb(108, 118, 125);&quot;&gt;■&lt;/span&gt;&lt;span style=&quot;color: rgb(108, 118, 125);&quot;&gt;■&lt;/span&gt;&lt;span style=&quot;color: rgb(108, 118, 125);&quot;&gt;■&lt;/span&gt;&lt;span style=&quot;color: rgb(108, 118, 125);&quot;&gt;■&lt;/span&gt;&lt;span style=&quot;color: rgb(108, 118, 125);&quot;&gt;■&lt;/span&gt;&lt;/span&gt;&lt;/span&gt;&lt;/span&gt;&lt;/div&gt;&lt;div&gt;&lt;span style=&quot;color: rgb(108, 118, 125);&quot;&gt;&lt;span style=&quot;color: rgb(108, 118, 125);&quot;&gt;&lt;span style=&quot;color: rgb(108, 118, 125);&quot;&gt;&lt;span style=&quot;color: rgb(108, 118, 125);&quot;&gt;&lt;span style=&quot;color: rgb(108, 118, 125);&quot;&gt;■&lt;/span&gt;&lt;span style=&quot;color: rgb(108, 118, 125);&quot;&gt;■&lt;/span&gt;&lt;span style=&quot;color: rgb(108, 118, 125);&quot;&gt;■&lt;/span&gt;&lt;span style=&quot;color: rgb(108, 118, 125);&quot;&gt;■&lt;/span&gt;&lt;span style=&quot;color: rgb(108, 118, 125);&quot;&gt;■&lt;/span&gt;&lt;span style=&quot;color: rgb(108, 118, 125);&quot;&gt;■&lt;/span&gt;&lt;span style=&quot;color: rgb(108, 118, 125);&quot;&gt;■&lt;/span&gt;&lt;span style=&quot;color: rgb(108, 118, 125);&quot;&gt;■&lt;/span&gt;&lt;span style=&quot;color: rgb(108, 118, 125);&quot;&gt;■&lt;/span&gt;&lt;span style=&quot;color: rgb(108, 118, 125);&quot;&gt;■&lt;/span&gt;&lt;span style=&quot;color: rgb(108, 118, 125);&quot;&gt;■&lt;/span&gt;&lt;span style=&quot;color: rgb(108, 118, 125);&quot;&gt;■&lt;/span&gt;&lt;span style=&quot;color: rgb(108, 118, 125);&quot;&gt;■&lt;/span&gt;&lt;span style=&quot;color: rgb(108, 118, 125);&quot;&gt;■&lt;/span&gt;&lt;span style=&quot;color: rgb(108, 118, 125);&quot;&gt;■&lt;/span&gt;&lt;span style=&quot;color: rgb(108, 118, 125);&quot;&gt;■&lt;/span&gt;&lt;span style=&quot;color: rgb(108, 118, 125);&quot;&gt;■&lt;/span&gt;&lt;span style=&quot;color: rgb(108, 118, 125);&quot;&gt;■&lt;/span&gt;&lt;span style=&quot;color: rgb(108, 118, 125);&quot;&gt;■&lt;/span&gt;&lt;span style=&quot;color: rgb(108, 118, 125);&quot;&gt;■&lt;/span&gt;&lt;span style=&quot;color: rgb(108, 118, 125);&quot;&gt;■&lt;/span&gt;&lt;span style=&quot;color: rgb(108, 118, 125);&quot;&gt;■&lt;/span&gt;&lt;span style=&quot;color: rgb(108, 118, 125);&quot;&gt;■&lt;/span&gt;&lt;span style=&quot;color: rgb(108, 118, 125);&quot;&gt;■&lt;/span&gt;&lt;span style=&quot;color: rgb(108, 118, 125);&quot;&gt;■&lt;/span&gt;&lt;span style=&quot;color: rgb(108, 118, 125);&quot;&gt;■&lt;/span&gt;&lt;span style=&quot;color: rgb(108, 118, 125);&quot;&gt;■&lt;/span&gt;&lt;span style=&quot;color: rgb(108, 118, 125);&quot;&gt;■&lt;/span&gt;&lt;span style=&quot;color: rgb(108, 118, 125);&quot;&gt;■&lt;/span&gt;&lt;span style=&quot;color: rgb(108, 118, 125);&quot;&gt;■&lt;/span&gt;&lt;span style=&quot;color: rgb(108, 118, 125);&quot;&gt;■&lt;/span&gt;&lt;span style=&quot;color: rgb(108, 118, 125);&quot;&gt;■&lt;/span&gt;&lt;span style=&quot;color: rgb(108, 118, 125);&quot;&gt;■&lt;/span&gt;&lt;span style=&quot;color: rgb(108, 118, 125);&quot;&gt;■&lt;/span&gt;&lt;span style=&quot;color: rgb(108, 118, 125);&quot;&gt;■&lt;/span&gt;&lt;span style=&quot;color: rgb(108, 118, 125);&quot;&gt;■&lt;/span&gt;&lt;/span&gt;&lt;/span&gt;&lt;/span&gt;&lt;/span&gt;&lt;/div&gt;&lt;div&gt;&lt;span style=&quot;color: rgb(108, 118, 125);&quot;&gt;&lt;span style=&quot;color: rgb(108, 118, 125);&quot;&gt;&lt;span style=&quot;color: rgb(108, 118, 125);&quot;&gt;&lt;span style=&quot;color: rgb(108, 118, 125);&quot;&gt;&lt;span style=&quot;color: rgb(108, 118, 125);&quot;&gt;&lt;span style=&quot;color: rgb(108, 118, 125);&quot;&gt;■&lt;/span&gt;&lt;span style=&quot;color: rgb(108, 118, 125);&quot;&gt;■&lt;/span&gt;&lt;span style=&quot;color: rgb(108, 118, 125);&quot;&gt;■&lt;/span&gt;&lt;span style=&quot;color: rgb(108, 118, 125);&quot;&gt;■&lt;/span&gt;&lt;span style=&quot;color: rgb(108, 118, 125);&quot;&gt;■&lt;/span&gt;&lt;span style=&quot;color: rgb(108, 118, 125);&quot;&gt;■&lt;/span&gt;&lt;span style=&quot;color: rgb(108, 118, 125);&quot;&gt;■&lt;/span&gt;&lt;span style=&quot;color: rgb(108, 118, 125);&quot;&gt;■&lt;/span&gt;&lt;span style=&quot;color: rgb(108, 118, 125);&quot;&gt;■&lt;/span&gt;&lt;span style=&quot;color: rgb(108, 118, 125);&quot;&gt;■&lt;/span&gt;&lt;span style=&quot;color: rgb(108, 118, 125);&quot;&gt;■&lt;/span&gt;&lt;span style=&quot;color: rgb(108, 118, 125);&quot;&gt;■&lt;/span&gt;&lt;span style=&quot;color: rgb(108, 118, 125);&quot;&gt;■&lt;/span&gt;&lt;span style=&quot;color: rgb(108, 118, 125);&quot;&gt;■&lt;/span&gt;&lt;span style=&quot;color: rgb(108, 118, 125);&quot;&gt;■&lt;/span&gt;&lt;span style=&quot;color: rgb(108, 118, 125);&quot;&gt;■&lt;/span&gt;&lt;span style=&quot;color: rgb(108, 118, 125);&quot;&gt;■&lt;/span&gt;&lt;span style=&quot;color: rgb(108, 118, 125);&quot;&gt;■&lt;/span&gt;&lt;span style=&quot;color: rgb(108, 118, 125);&quot;&gt;■&lt;/span&gt;&lt;span style=&quot;color: rgb(108, 118, 125);&quot;&gt;■&lt;/span&gt;&lt;span style=&quot;color: rgb(108, 118, 125);&quot;&gt;■&lt;/span&gt;&lt;span style=&quot;color: rgb(108, 118, 125);&quot;&gt;■&lt;/span&gt;&lt;span style=&quot;color: rgb(108, 118, 125);&quot;&gt;■&lt;/span&gt;&lt;span style=&quot;color: rgb(108, 118, 125);&quot;&gt;■&lt;/span&gt;&lt;span style=&quot;color: rgb(108, 118, 125);&quot;&gt;■&lt;/span&gt;&lt;span style=&quot;color: rgb(108, 118, 125);&quot;&gt;■&lt;/span&gt;&lt;span style=&quot;color: rgb(108, 118, 125);&quot;&gt;■&lt;/span&gt;&lt;span style=&quot;color: rgb(108, 118, 125);&quot;&gt;■&lt;/span&gt;&lt;span style=&quot;color: rgb(108, 118, 125);&quot;&gt;■&lt;/span&gt;&lt;span style=&quot;color: rgb(108, 118, 125);&quot;&gt;■&lt;/span&gt;&lt;span style=&quot;color: rgb(108, 118, 125);&quot;&gt;■&lt;/span&gt;&lt;span style=&quot;color: rgb(108, 118, 125);&quot;&gt;■&lt;/span&gt;&lt;span style=&quot;color: rgb(108, 118, 125);&quot;&gt;■&lt;/span&gt;&lt;span style=&quot;color: rgb(108, 118, 125);&quot;&gt;■&lt;/span&gt;&lt;span style=&quot;color: rgb(108, 118, 125);&quot;&gt;■&lt;/span&gt;&lt;span style=&quot;color: rgb(108, 118, 125);&quot;&gt;■&lt;/span&gt;&lt;/span&gt;&lt;/span&gt;&lt;/span&gt;&lt;/span&gt;&lt;/span&gt;&lt;/div&gt;&lt;div&gt;&lt;span style=&quot;color: rgb(108, 118, 125);&quot;&gt;&lt;span style=&quot;color: rgb(108, 118, 125);&quot;&gt;&lt;span style=&quot;color: rgb(108, 118, 125);&quot;&gt;&lt;span style=&quot;color: rgb(108, 118, 125);&quot;&gt;&lt;span style=&quot;color: rgb(108, 118, 125);&quot;&gt;&lt;span style=&quot;color: rgb(108, 118, 125);&quot;&gt;&lt;span style=&quot;color: rgb(108, 118, 125);&quot;&gt;■&lt;/span&gt;&lt;span style=&quot;color: rgb(108, 118, 125);&quot;&gt;■&lt;/span&gt;&lt;span style=&quot;color: rgb(108, 118, 125);&quot;&gt;■&lt;/span&gt;&lt;span style=&quot;color: rgb(108, 118, 125);&quot;&gt;■&lt;/span&gt;&lt;span style=&quot;color: rgb(108, 118, 125);&quot;&gt;■&lt;/span&gt;&lt;span style=&quot;color: rgb(108, 118, 125);&quot;&gt;■&lt;/span&gt;&lt;span style=&quot;color: rgb(108, 118, 125);&quot;&gt;■&lt;/span&gt;&lt;span style=&quot;color: rgb(108, 118, 125);&quot;&gt;■&lt;/span&gt;&lt;span style=&quot;color: rgb(108, 118, 125);&quot;&gt;■&lt;/span&gt;&lt;span style=&quot;color: rgb(108, 118, 125);&quot;&gt;■&lt;/span&gt;&lt;span style=&quot;color: rgb(108, 118, 125);&quot;&gt;■&lt;/span&gt;&lt;span style=&quot;color: rgb(108, 118, 125);&quot;&gt;■&lt;/span&gt;&lt;span style=&quot;color: rgb(108, 118, 125);&quot;&gt;■&lt;/span&gt;&lt;span style=&quot;color: rgb(108, 118, 125);&quot;&gt;■&lt;/span&gt;&lt;span style=&quot;color: rgb(108, 118, 125);&quot;&gt;■&lt;/span&gt;&lt;span style=&quot;color: rgb(108, 118, 125);&quot;&gt;■&lt;/span&gt;&lt;span style=&quot;color: rgb(108, 118, 125);&quot;&gt;■&lt;/span&gt;&lt;span style=&quot;color: rgb(108, 118, 125);&quot;&gt;■&lt;/span&gt;&lt;span style=&quot;color: rgb(108, 118, 125);&quot;&gt;■&lt;/span&gt;&lt;span style=&quot;color: rgb(108, 118, 125);&quot;&gt;■&lt;/span&gt;&lt;span style=&quot;color: rgb(108, 118, 125);&quot;&gt;■&lt;/span&gt;&lt;span style=&quot;color: rgb(108, 118, 125);&quot;&gt;■&lt;/span&gt;&lt;span style=&quot;color: rgb(108, 118, 125);&quot;&gt;■&lt;/span&gt;&lt;span style=&quot;color: rgb(108, 118, 125);&quot;&gt;■&lt;/span&gt;&lt;span style=&quot;color: rgb(108, 118, 125);&quot;&gt;■&lt;/span&gt;&lt;span style=&quot;color: rgb(108, 118, 125);&quot;&gt;■&lt;/span&gt;&lt;span style=&quot;color: rgb(108, 118, 125);&quot;&gt;■&lt;/span&gt;&lt;span style=&quot;color: rgb(108, 118, 125);&quot;&gt;■&lt;/span&gt;&lt;span style=&quot;color: rgb(108, 118, 125);&quot;&gt;■&lt;/span&gt;&lt;span style=&quot;color: rgb(108, 118, 125);&quot;&gt;■&lt;/span&gt;&lt;span style=&quot;color: rgb(108, 118, 125);&quot;&gt;■&lt;/span&gt;&lt;span style=&quot;color: rgb(108, 118, 125);&quot;&gt;■&lt;/span&gt;&lt;span style=&quot;color: rgb(108, 118, 125);&quot;&gt;■&lt;/span&gt;&lt;span style=&quot;color: rgb(108, 118, 125);&quot;&gt;■&lt;/span&gt;&lt;span style=&quot;color: rgb(108, 118, 125);&quot;&gt;■&lt;/span&gt;&lt;span style=&quot;color: rgb(108, 118, 125);&quot;&gt;■&lt;/span&gt;&lt;/span&gt;&lt;/span&gt;&lt;/span&gt;&lt;/span&gt;&lt;/span&gt;&lt;/span&gt;&lt;/div&gt;&lt;div&gt;&lt;span style=&quot;color: rgb(108, 118, 125);&quot;&gt;&lt;span style=&quot;color: rgb(108, 118, 125);&quot;&gt;&lt;span style=&quot;color: rgb(108, 118, 125);&quot;&gt;&lt;span style=&quot;color: rgb(108, 118, 125);&quot;&gt;&lt;span style=&quot;color: rgb(108, 118, 125);&quot;&gt;&lt;span style=&quot;color: rgb(108, 118, 125);&quot;&gt;&lt;span style=&quot;color: rgb(108, 118, 125);&quot;&gt;&lt;span style=&quot;color: rgb(108, 118, 125);&quot;&gt;■&lt;/span&gt;&lt;span style=&quot;color: rgb(108, 118, 125);&quot;&gt;■&lt;/span&gt;&lt;span style=&quot;color: rgb(108, 118, 125);&quot;&gt;■&lt;/span&gt;&lt;span style=&quot;color: rgb(108, 118, 125);&quot;&gt;■&lt;/span&gt;&lt;span style=&quot;color: rgb(108, 118, 125);&quot;&gt;■&lt;/span&gt;&lt;span style=&quot;color: rgb(108, 118, 125);&quot;&gt;■&lt;/span&gt;&lt;span style=&quot;color: rgb(108, 118, 125);&quot;&gt;■&lt;/span&gt;&lt;span style=&quot;color: rgb(108, 118, 125);&quot;&gt;■&lt;/span&gt;&lt;span style=&quot;color: rgb(108, 118, 125);&quot;&gt;■&lt;/span&gt;&lt;span style=&quot;color: rgb(108, 118, 125);&quot;&gt;■&lt;/span&gt;&lt;span style=&quot;color: rgb(108, 118, 125);&quot;&gt;■&lt;/span&gt;&lt;span style=&quot;color: rgb(108, 118, 125);&quot;&gt;■&lt;/span&gt;&lt;span style=&quot;color: rgb(108, 118, 125);&quot;&gt;■&lt;/span&gt;&lt;span style=&quot;color: rgb(108, 118, 125);&quot;&gt;■&lt;/span&gt;&lt;span style=&quot;color: rgb(108, 118, 125);&quot;&gt;■&lt;/span&gt;&lt;span style=&quot;color: rgb(108, 118, 125);&quot;&gt;■&lt;/span&gt;&lt;span style=&quot;color: rgb(108, 118, 125);&quot;&gt;■&lt;/span&gt;&lt;span style=&quot;color: rgb(108, 118, 125);&quot;&gt;■&lt;/span&gt;&lt;span style=&quot;color: rgb(108, 118, 125);&quot;&gt;■&lt;/span&gt;&lt;span style=&quot;color: rgb(108, 118, 125);&quot;&gt;■&lt;/span&gt;&lt;span style=&quot;color: rgb(108, 118, 125);&quot;&gt;■&lt;/span&gt;&lt;span style=&quot;color: rgb(108, 118, 125);&quot;&gt;■&lt;/span&gt;&lt;span style=&quot;color: rgb(108, 118, 125);&quot;&gt;■&lt;/span&gt;&lt;span style=&quot;color: rgb(108, 118, 125);&quot;&gt;■&lt;/span&gt;&lt;span style=&quot;color: rgb(108, 118, 125);&quot;&gt;■&lt;/span&gt;&lt;span style=&quot;color: rgb(108, 118, 125);&quot;&gt;■&lt;/span&gt;&lt;span style=&quot;color: rgb(108, 118, 125);&quot;&gt;■&lt;/span&gt;&lt;span style=&quot;color: rgb(108, 118, 125);&quot;&gt;■&lt;/span&gt;&lt;span style=&quot;color: rgb(108, 118, 125);&quot;&gt;■&lt;/span&gt;&lt;span style=&quot;color: rgb(108, 118, 125);&quot;&gt;■&lt;/span&gt;&lt;span style=&quot;color: rgb(108, 118, 125);&quot;&gt;■&lt;/span&gt;&lt;span style=&quot;color: rgb(108, 118, 125);&quot;&gt;■&lt;/span&gt;&lt;span style=&quot;color: rgb(108, 118, 125);&quot;&gt;■&lt;/span&gt;&lt;span style=&quot;color: rgb(108, 118, 125);&quot;&gt;■&lt;/span&gt;&lt;span style=&quot;color: rgb(108, 118, 125);&quot;&gt;■&lt;/span&gt;&lt;span style=&quot;color: rgb(108, 118, 125);&quot;&gt;■&lt;/span&gt;&lt;/span&gt;&lt;/span&gt;&lt;/span&gt;&lt;/span&gt;&lt;/span&gt;&lt;/span&gt;&lt;/span&gt;&lt;/div&gt;&lt;div&gt;&lt;span style=&quot;color: rgb(108, 118, 125);&quot;&gt;&lt;span style=&quot;color: rgb(108, 118, 125);&quot;&gt;&lt;span style=&quot;color: rgb(108, 118, 125);&quot;&gt;&lt;span style=&quot;color: rgb(108, 118, 125);&quot;&gt;&lt;span style=&quot;color: rgb(108, 118, 125);&quot;&gt;&lt;span style=&quot;color: rgb(108, 118, 125);&quot;&gt;&lt;span style=&quot;color: rgb(108, 118, 125);&quot;&gt;&lt;span style=&quot;color: rgb(108, 118, 125);&quot;&gt;&lt;span style=&quot;color: rgb(108, 118, 125);&quot;&gt;■&lt;/span&gt;&lt;span style=&quot;color: rgb(108, 118, 125);&quot;&gt;■&lt;/span&gt;&lt;span style=&quot;color: rgb(108, 118, 125);&quot;&gt;■&lt;/span&gt;&lt;span style=&quot;color: rgb(108, 118, 125);&quot;&gt;■&lt;/span&gt;&lt;span style=&quot;color: rgb(108, 118, 125);&quot;&gt;■&lt;/span&gt;&lt;span style=&quot;color: rgb(108, 118, 125);&quot;&gt;■&lt;/span&gt;&lt;span style=&quot;color: rgb(108, 118, 125);&quot;&gt;■&lt;/span&gt;&lt;span style=&quot;color: rgb(108, 118, 125);&quot;&gt;■&lt;/span&gt;&lt;span style=&quot;color: rgb(108, 118, 125);&quot;&gt;■&lt;/span&gt;&lt;span style=&quot;color: rgb(108, 118, 125);&quot;&gt;■&lt;/span&gt;&lt;span style=&quot;color: rgb(108, 118, 125);&quot;&gt;■&lt;/span&gt;&lt;span style=&quot;color: rgb(108, 118, 125);&quot;&gt;■&lt;/span&gt;&lt;span style=&quot;color: rgb(108, 118, 125);&quot;&gt;■&lt;/span&gt;&lt;span style=&quot;color: rgb(108, 118, 125);&quot;&gt;■&lt;/span&gt;&lt;span style=&quot;color: rgb(108, 118, 125);&quot;&gt;■&lt;/span&gt;&lt;span style=&quot;color: rgb(108, 118, 125);&quot;&gt;■&lt;/span&gt;&lt;span style=&quot;color: rgb(108, 118, 125);&quot;&gt;■&lt;/span&gt;&lt;span style=&quot;color: rgb(108, 118, 125);&quot;&gt;■&lt;/span&gt;&lt;span style=&quot;color: rgb(108, 118, 125);&quot;&gt;■&lt;/span&gt;&lt;span style=&quot;color: rgb(108, 118, 125);&quot;&gt;■&lt;/span&gt;&lt;span style=&quot;color: rgb(108, 118, 125);&quot;&gt;■&lt;/span&gt;&lt;span style=&quot;color: rgb(108, 118, 125);&quot;&gt;■&lt;/span&gt;&lt;span style=&quot;color: rgb(108, 118, 125);&quot;&gt;■&lt;/span&gt;&lt;span style=&quot;color: rgb(108, 118, 125);&quot;&gt;■&lt;/span&gt;&lt;span style=&quot;color: rgb(108, 118, 125);&quot;&gt;■&lt;/span&gt;&lt;span style=&quot;color: rgb(108, 118, 125);&quot;&gt;■&lt;/span&gt;&lt;span style=&quot;color: rgb(108, 118, 125);&quot;&gt;■&lt;/span&gt;&lt;span style=&quot;color: rgb(108, 118, 125);&quot;&gt;■&lt;/span&gt;&lt;span style=&quot;color: rgb(108, 118, 125);&quot;&gt;■&lt;/span&gt;&lt;span style=&quot;color: rgb(108, 118, 125);&quot;&gt;■&lt;/span&gt;&lt;span style=&quot;color: rgb(108, 118, 125);&quot;&gt;■&lt;/span&gt;&lt;span style=&quot;color: rgb(108, 118, 125);&quot;&gt;■&lt;/span&gt;&lt;span style=&quot;color: rgb(108, 118, 125);&quot;&gt;■&lt;/span&gt;&lt;span style=&quot;color: rgb(108, 118, 125);&quot;&gt;■&lt;/span&gt;&lt;span style=&quot;color: rgb(108, 118, 125);&quot;&gt;■&lt;/span&gt;&lt;span style=&quot;color: rgb(108, 118, 125);&quot;&gt;■&lt;/span&gt;&lt;/span&gt;&lt;/span&gt;&lt;/span&gt;&lt;/span&gt;&lt;/span&gt;&lt;/span&gt;&lt;/span&gt;&lt;/span&gt;&lt;/div&gt;&lt;div&gt;&lt;span style=&quot;color: rgb(108, 118, 125);&quot;&gt;&lt;span style=&quot;color: rgb(108, 118, 125);&quot;&gt;&lt;span style=&quot;color: rgb(108, 118, 125);&quot;&gt;&lt;span style=&quot;color: rgb(108, 118, 125);&quot;&gt;&lt;span style=&quot;color: rgb(108, 118, 125);&quot;&gt;&lt;span style=&quot;color: rgb(108, 118, 125);&quot;&gt;&lt;span style=&quot;color: rgb(108, 118, 125);&quot;&gt;&lt;span style=&quot;color: rgb(108, 118, 125);&quot;&gt;&lt;span style=&quot;color: rgb(108, 118, 125);&quot;&gt;&lt;span style=&quot;color: rgb(108, 118, 125);&quot;&gt;■&lt;/span&gt;&lt;span style=&quot;color: rgb(108, 118, 125);&quot;&gt;■&lt;/span&gt;&lt;span style=&quot;color: rgb(108, 118, 125);&quot;&gt;■&lt;/span&gt;&lt;span style=&quot;color: rgb(108, 118, 125);&quot;&gt;■&lt;/span&gt;&lt;span style=&quot;color: rgb(108, 118, 125);&quot;&gt;■&lt;/span&gt;&lt;span style=&quot;color: rgb(108, 118, 125);&quot;&gt;■&lt;/span&gt;&lt;span style=&quot;color: rgb(108, 118, 125);&quot;&gt;■&lt;/span&gt;&lt;span style=&quot;color: rgb(108, 118, 125);&quot;&gt;■&lt;/span&gt;&lt;span style=&quot;color: rgb(108, 118, 125);&quot;&gt;■&lt;/span&gt;&lt;span style=&quot;color: rgb(108, 118, 125);&quot;&gt;■&lt;/span&gt;&lt;span style=&quot;color: rgb(108, 118, 125);&quot;&gt;■&lt;/span&gt;&lt;span style=&quot;color: rgb(108, 118, 125);&quot;&gt;■&lt;/span&gt;&lt;span style=&quot;color: rgb(108, 118, 125);&quot;&gt;■&lt;/span&gt;&lt;span style=&quot;color: rgb(108, 118, 125);&quot;&gt;■&lt;/span&gt;&lt;span style=&quot;color: rgb(108, 118, 125);&quot;&gt;■&lt;/span&gt;&lt;span style=&quot;color: rgb(108, 118, 125);&quot;&gt;■&lt;/span&gt;&lt;span style=&quot;color: rgb(108, 118, 125);&quot;&gt;■&lt;/span&gt;&lt;span style=&quot;color: rgb(108, 118, 125);&quot;&gt;■&lt;/span&gt;&lt;span style=&quot;color: rgb(108, 118, 125);&quot;&gt;■&lt;/span&gt;&lt;span style=&quot;color: rgb(108, 118, 125);&quot;&gt;■&lt;/span&gt;&lt;span style=&quot;color: rgb(108, 118, 125);&quot;&gt;■&lt;/span&gt;&lt;span style=&quot;color: rgb(108, 118, 125);&quot;&gt;■&lt;/span&gt;&lt;span style=&quot;color: rgb(108, 118, 125);&quot;&gt;■&lt;/span&gt;&lt;span style=&quot;color: rgb(108, 118, 125);&quot;&gt;■&lt;/span&gt;&lt;span style=&quot;color: rgb(108, 118, 125);&quot;&gt;■&lt;/span&gt;&lt;span style=&quot;color: rgb(108, 118, 125);&quot;&gt;■&lt;/span&gt;&lt;span style=&quot;color: rgb(108, 118, 125);&quot;&gt;■&lt;/span&gt;&lt;span style=&quot;color: rgb(108, 118, 125);&quot;&gt;■&lt;/span&gt;&lt;span style=&quot;color: rgb(108, 118, 125);&quot;&gt;■&lt;/span&gt;&lt;span style=&quot;color: rgb(108, 118, 125);&quot;&gt;■&lt;/span&gt;&lt;span style=&quot;color: rgb(108, 118, 125);&quot;&gt;■&lt;/span&gt;&lt;span style=&quot;color: rgb(108, 118, 125);&quot;&gt;■&lt;/span&gt;&lt;span style=&quot;color: rgb(108, 118, 125);&quot;&gt;■&lt;/span&gt;&lt;span style=&quot;color: rgb(108, 118, 125);&quot;&gt;■&lt;/span&gt;&lt;span style=&quot;color: rgb(108, 118, 125);&quot;&gt;■&lt;/span&gt;&lt;span style=&quot;color: rgb(108, 118, 125);&quot;&gt;■&lt;/span&gt;&lt;/span&gt;&lt;/span&gt;&lt;/span&gt;&lt;/span&gt;&lt;/span&gt;&lt;/span&gt;&lt;/span&gt;&lt;/span&gt;&lt;/span&gt;&lt;/div&gt;&lt;div&gt;&lt;span style=&quot;color: rgb(108, 118, 125);&quot;&gt;&lt;span style=&quot;color: rgb(108, 118, 125);&quot;&gt;&lt;span style=&quot;color: rgb(108, 118, 125);&quot;&gt;&lt;span style=&quot;color: rgb(108, 118, 125);&quot;&gt;&lt;span style=&quot;color: rgb(108, 118, 125);&quot;&gt;&lt;span style=&quot;color: rgb(108, 118, 125);&quot;&gt;&lt;span style=&quot;color: rgb(108, 118, 125);&quot;&gt;&lt;span style=&quot;color: rgb(108, 118, 125);&quot;&gt;&lt;span style=&quot;color: rgb(108, 118, 125);&quot;&gt;&lt;span style=&quot;color: rgb(108, 118, 125);&quot;&gt;&lt;span style=&quot;color: rgb(108, 118, 125);&quot;&gt;■&lt;/span&gt;&lt;span style=&quot;color: rgb(108, 118, 125);&quot;&gt;■&lt;/span&gt;&lt;span style=&quot;color: rgb(108, 118, 125);&quot;&gt;■&lt;/span&gt;&lt;span style=&quot;color: rgb(108, 118, 125);&quot;&gt;■&lt;/span&gt;&lt;span style=&quot;color: rgb(108, 118, 125);&quot;&gt;■&lt;/span&gt;&lt;span style=&quot;color: rgb(108, 118, 125);&quot;&gt;■&lt;/span&gt;&lt;span style=&quot;color: rgb(108, 118, 125);&quot;&gt;■&lt;/span&gt;&lt;span style=&quot;color: rgb(108, 118, 125);&quot;&gt;■&lt;/span&gt;&lt;span style=&quot;color: rgb(108, 118, 125);&quot;&gt;■&lt;/span&gt;&lt;span style=&quot;color: rgb(108, 118, 125);&quot;&gt;■&lt;/span&gt;&lt;span style=&quot;color: rgb(108, 118, 125);&quot;&gt;■&lt;/span&gt;&lt;span style=&quot;color: rgb(108, 118, 125);&quot;&gt;■&lt;/span&gt;&lt;span style=&quot;color: rgb(108, 118, 125);&quot;&gt;■&lt;/span&gt;&lt;span style=&quot;color: rgb(108, 118, 125);&quot;&gt;■&lt;/span&gt;&lt;span style=&quot;color: rgb(108, 118, 125);&quot;&gt;■&lt;/span&gt;&lt;span style=&quot;color: rgb(108, 118, 125);&quot;&gt;■&lt;/span&gt;&lt;span style=&quot;color: rgb(108, 118, 125);&quot;&gt;■&lt;/span&gt;&lt;span style=&quot;color: rgb(108, 118, 125);&quot;&gt;■&lt;/span&gt;&lt;span style=&quot;color: rgb(108, 118, 125);&quot;&gt;■&lt;/span&gt;&lt;span style=&quot;color: rgb(108, 118, 125);&quot;&gt;■&lt;/span&gt;&lt;span style=&quot;color: rgb(108, 118, 125);&quot;&gt;■&lt;/span&gt;&lt;span style=&quot;color: rgb(108, 118, 125);&quot;&gt;■&lt;/span&gt;&lt;span style=&quot;color: rgb(108, 118, 125);&quot;&gt;■&lt;/span&gt;&lt;span style=&quot;color: rgb(108, 118, 125);&quot;&gt;■&lt;/span&gt;&lt;span style=&quot;color: rgb(108, 118, 125);&quot;&gt;■&lt;/span&gt;&lt;span style=&quot;color: rgb(108, 118, 125);&quot;&gt;■&lt;/span&gt;&lt;span style=&quot;color: rgb(108, 118, 125);&quot;&gt;■&lt;/span&gt;&lt;span style=&quot;color: rgb(108, 118, 125);&quot;&gt;■&lt;/span&gt;&lt;span style=&quot;color: rgb(108, 118, 125);&quot;&gt;■&lt;/span&gt;&lt;span style=&quot;color: rgb(108, 118, 125);&quot;&gt;■&lt;/span&gt;&lt;span style=&quot;color: rgb(108, 118, 125);&quot;&gt;■&lt;/span&gt;&lt;span style=&quot;color: rgb(108, 118, 125);&quot;&gt;■&lt;/span&gt;&lt;span style=&quot;color: rgb(108, 118, 125);&quot;&gt;■&lt;/span&gt;&lt;span style=&quot;color: rgb(108, 118, 125);&quot;&gt;■&lt;/span&gt;&lt;span style=&quot;color: rgb(108, 118, 125);&quot;&gt;■&lt;/span&gt;&lt;span style=&quot;color: rgb(108, 118, 125);&quot;&gt;■&lt;/span&gt;&lt;/span&gt;&lt;/span&gt;&lt;/span&gt;&lt;/span&gt;&lt;/span&gt;&lt;/span&gt;&lt;/span&gt;&lt;/span&gt;&lt;/span&gt;&lt;/span&gt;&lt;/div&gt;&lt;div&gt;&lt;span style=&quot;color: rgb(108, 118, 125);&quot;&gt;&lt;span style=&quot;color: rgb(108, 118, 125);&quot;&gt;&lt;span style=&quot;color: rgb(108, 118, 125);&quot;&gt;&lt;span style=&quot;color: rgb(108, 118, 125);&quot;&gt;&lt;span style=&quot;color: rgb(108, 118, 125);&quot;&gt;&lt;span style=&quot;color: rgb(108, 118, 125);&quot;&gt;&lt;span style=&quot;color: rgb(108, 118, 125);&quot;&gt;&lt;span style=&quot;color: rgb(108, 118, 125);&quot;&gt;&lt;span style=&quot;color: rgb(108, 118, 125);&quot;&gt;&lt;span style=&quot;color: rgb(108, 118, 125);&quot;&gt;&lt;span style=&quot;color: rgb(108, 118, 125);&quot;&gt;&lt;span style=&quot;color: rgb(108, 118, 125);&quot;&gt;■&lt;/span&gt;&lt;span style=&quot;color: rgb(108, 118, 125);&quot;&gt;■&lt;/span&gt;&lt;span style=&quot;color: rgb(108, 118, 125);&quot;&gt;■&lt;/span&gt;&lt;span style=&quot;color: rgb(108, 118, 125);&quot;&gt;■&lt;/span&gt;&lt;span style=&quot;color: rgb(108, 118, 125);&quot;&gt;■&lt;/span&gt;&lt;span style=&quot;color: rgb(108, 118, 125);&quot;&gt;■&lt;/span&gt;&lt;span style=&quot;color: rgb(108, 118, 125);&quot;&gt;■&lt;/span&gt;&lt;span style=&quot;color: rgb(108, 118, 125);&quot;&gt;■&lt;/span&gt;&lt;span style=&quot;color: rgb(108, 118, 125);&quot;&gt;■&lt;/span&gt;&lt;span style=&quot;color: rgb(108, 118, 125);&quot;&gt;■&lt;/span&gt;&lt;span style=&quot;color: rgb(108, 118, 125);&quot;&gt;■&lt;/span&gt;&lt;span style=&quot;color: rgb(108, 118, 125);&quot;&gt;■&lt;/span&gt;&lt;span style=&quot;color: rgb(108, 118, 125);&quot;&gt;■&lt;/span&gt;&lt;span style=&quot;color: rgb(108, 118, 125);&quot;&gt;■&lt;/span&gt;&lt;span style=&quot;color: rgb(108, 118, 125);&quot;&gt;■&lt;/span&gt;&lt;span style=&quot;color: rgb(108, 118, 125);&quot;&gt;■&lt;/span&gt;&lt;span style=&quot;color: rgb(108, 118, 125);&quot;&gt;■&lt;/span&gt;&lt;span style=&quot;color: rgb(108, 118, 125);&quot;&gt;■&lt;/span&gt;&lt;span style=&quot;color: rgb(108, 118, 125);&quot;&gt;■&lt;/span&gt;&lt;span style=&quot;color: rgb(108, 118, 125);&quot;&gt;■&lt;/span&gt;&lt;span style=&quot;color: rgb(108, 118, 125);&quot;&gt;■&lt;/span&gt;&lt;span style=&quot;color: rgb(108, 118, 125);&quot;&gt;■&lt;/span&gt;&lt;span style=&quot;color: rgb(108, 118, 125);&quot;&gt;■&lt;/span&gt;&lt;span style=&quot;color: rgb(108, 118, 125);&quot;&gt;■&lt;/span&gt;&lt;span style=&quot;color: rgb(108, 118, 125);&quot;&gt;■&lt;/span&gt;&lt;span style=&quot;color: rgb(108, 118, 125);&quot;&gt;■&lt;/span&gt;&lt;span style=&quot;color: rgb(108, 118, 125);&quot;&gt;■&lt;/span&gt;&lt;span style=&quot;color: rgb(108, 118, 125);&quot;&gt;■&lt;/span&gt;&lt;span style=&quot;color: rgb(108, 118, 125);&quot;&gt;■&lt;/span&gt;&lt;span style=&quot;color: rgb(108, 118, 125);&quot;&gt;■&lt;/span&gt;&lt;span style=&quot;color: rgb(108, 118, 125);&quot;&gt;■&lt;/span&gt;&lt;span style=&quot;color: rgb(108, 118, 125);&quot;&gt;■&lt;/span&gt;&lt;span style=&quot;color: rgb(108, 118, 125);&quot;&gt;■&lt;/span&gt;&lt;span style=&quot;color: rgb(108, 118, 125);&quot;&gt;■&lt;/span&gt;&lt;span style=&quot;color: rgb(108, 118, 125);&quot;&gt;■&lt;/span&gt;&lt;span style=&quot;color: rgb(108, 118, 125);&quot;&gt;■&lt;/span&gt;&lt;/span&gt;&lt;/span&gt;&lt;/span&gt;&lt;/span&gt;&lt;/span&gt;&lt;/span&gt;&lt;/span&gt;&lt;/span&gt;&lt;/span&gt;&lt;/span&gt;&lt;/span&gt;&lt;/div&gt;&lt;div&gt;&lt;span style=&quot;color: rgb(108, 118, 125);&quot;&gt;&lt;span style=&quot;color: rgb(108, 118, 125);&quot;&gt;&lt;span style=&quot;color: rgb(108, 118, 125);&quot;&gt;&lt;span style=&quot;color: rgb(108, 118, 125);&quot;&gt;&lt;span style=&quot;color: rgb(108, 118, 125);&quot;&gt;&lt;span style=&quot;color: rgb(108, 118, 125);&quot;&gt;&lt;span style=&quot;color: rgb(108, 118, 125);&quot;&gt;&lt;span style=&quot;color: rgb(108, 118, 125);&quot;&gt;&lt;span style=&quot;color: rgb(108, 118, 125);&quot;&gt;&lt;span style=&quot;color: rgb(108, 118, 125);&quot;&gt;&lt;span style=&quot;color: rgb(108, 118, 125);&quot;&gt;&lt;span style=&quot;color: rgb(108, 118, 125);&quot;&gt;&lt;span style=&quot;color: rgb(108, 118, 125);&quot;&gt;■&lt;/span&gt;&lt;span style=&quot;color: rgb(108, 118, 125);&quot;&gt;■&lt;/span&gt;&lt;span style=&quot;color: rgb(108, 118, 125);&quot;&gt;■&lt;/span&gt;&lt;span style=&quot;color: rgb(108, 118, 125);&quot;&gt;■&lt;/span&gt;&lt;span style=&quot;color: rgb(108, 118, 125);&quot;&gt;■&lt;/span&gt;&lt;span style=&quot;color: rgb(108, 118, 125);&quot;&gt;■&lt;/span&gt;&lt;span style=&quot;color: rgb(108, 118, 125);&quot;&gt;■&lt;/span&gt;&lt;span style=&quot;color: rgb(108, 118, 125);&quot;&gt;■&lt;/span&gt;&lt;span style=&quot;color: rgb(108, 118, 125);&quot;&gt;■&lt;/span&gt;&lt;span style=&quot;color: rgb(108, 118, 125);&quot;&gt;■&lt;/span&gt;&lt;span style=&quot;color: rgb(108, 118, 125);&quot;&gt;■&lt;/span&gt;&lt;span style=&quot;color: rgb(108, 118, 125);&quot;&gt;■&lt;/span&gt;&lt;span style=&quot;color: rgb(108, 118, 125);&quot;&gt;■&lt;/span&gt;&lt;span style=&quot;color: rgb(108, 118, 125);&quot;&gt;■&lt;/span&gt;&lt;span style=&quot;color: rgb(108, 118, 125);&quot;&gt;■&lt;/span&gt;&lt;span style=&quot;color: rgb(108, 118, 125);&quot;&gt;■&lt;/span&gt;&lt;span style=&quot;color: rgb(108, 118, 125);&quot;&gt;■&lt;/span&gt;&lt;span style=&quot;color: rgb(108, 118, 125);&quot;&gt;■&lt;/span&gt;&lt;span style=&quot;color: rgb(108, 118, 125);&quot;&gt;■&lt;/span&gt;&lt;span style=&quot;color: rgb(108, 118, 125);&quot;&gt;■&lt;/span&gt;&lt;span style=&quot;color: rgb(108, 118, 125);&quot;&gt;■&lt;/span&gt;&lt;span style=&quot;color: rgb(108, 118, 125);&quot;&gt;■&lt;/span&gt;&lt;span style=&quot;color: rgb(108, 118, 125);&quot;&gt;■&lt;/span&gt;&lt;span style=&quot;color: rgb(108, 118, 125);&quot;&gt;■&lt;/span&gt;&lt;span style=&quot;color: rgb(108, 118, 125);&quot;&gt;■&lt;/span&gt;&lt;span style=&quot;color: rgb(108, 118, 125);&quot;&gt;■&lt;/span&gt;&lt;span style=&quot;color: rgb(108, 118, 125);&quot;&gt;■&lt;/span&gt;&lt;span style=&quot;color: rgb(108, 118, 125);&quot;&gt;■&lt;/span&gt;&lt;span style=&quot;color: rgb(108, 118, 125);&quot;&gt;■&lt;/span&gt;&lt;span style=&quot;color: rgb(108, 118, 125);&quot;&gt;■&lt;/span&gt;&lt;span style=&quot;color: rgb(108, 118, 125);&quot;&gt;■&lt;/span&gt;&lt;span style=&quot;color: rgb(108, 118, 125);&quot;&gt;■&lt;/span&gt;&lt;span style=&quot;color: rgb(108, 118, 125);&quot;&gt;■&lt;/span&gt;&lt;span style=&quot;color: rgb(108, 118, 125);&quot;&gt;■&lt;/span&gt;&lt;span style=&quot;color: rgb(108, 118, 125);&quot;&gt;■&lt;/span&gt;&lt;span style=&quot;color: rgb(108, 118, 125);&quot;&gt;■&lt;/span&gt;&lt;/span&gt;&lt;/span&gt;&lt;/span&gt;&lt;/span&gt;&lt;/span&gt;&lt;/span&gt;&lt;/span&gt;&lt;/span&gt;&lt;/span&gt;&lt;/span&gt;&lt;/span&gt;&lt;/span&gt;&lt;/div&gt;&lt;div&gt;&lt;span style=&quot;color: rgb(108, 118, 125);&quot;&gt;&lt;span style=&quot;color: rgb(108, 118, 125);&quot;&gt;&lt;span style=&quot;color: rgb(108, 118, 125);&quot;&gt;&lt;span style=&quot;color: rgb(108, 118, 125);&quot;&gt;&lt;span style=&quot;color: rgb(108, 118, 125);&quot;&gt;&lt;span style=&quot;color: rgb(108, 118, 125);&quot;&gt;&lt;span style=&quot;color: rgb(108, 118, 125);&quot;&gt;&lt;span style=&quot;color: rgb(108, 118, 125);&quot;&gt;&lt;span style=&quot;color: rgb(108, 118, 125);&quot;&gt;&lt;span style=&quot;color: rgb(108, 118, 125);&quot;&gt;&lt;span style=&quot;color: rgb(108, 118, 125);&quot;&gt;&lt;span style=&quot;color: rgb(108, 118, 125);&quot;&gt;&lt;span style=&quot;color: rgb(108, 118, 125);&quot;&gt;&lt;span style=&quot;color: rgb(108, 118, 125);&quot;&gt;■&lt;/span&gt;&lt;span style=&quot;color: rgb(108, 118, 125);&quot;&gt;■&lt;/span&gt;&lt;span style=&quot;color: rgb(108, 118, 125);&quot;&gt;■&lt;/span&gt;&lt;span style=&quot;color: rgb(108, 118, 125);&quot;&gt;■&lt;/span&gt;&lt;span style=&quot;color: rgb(108, 118, 125);&quot;&gt;■&lt;/span&gt;&lt;span style=&quot;color: rgb(108, 118, 125);&quot;&gt;■&lt;/span&gt;&lt;span style=&quot;color: rgb(108, 118, 125);&quot;&gt;■&lt;/span&gt;&lt;span style=&quot;color: rgb(108, 118, 125);&quot;&gt;■&lt;/span&gt;&lt;span style=&quot;color: rgb(108, 118, 125);&quot;&gt;■&lt;/span&gt;&lt;span style=&quot;color: rgb(108, 118, 125);&quot;&gt;■&lt;/span&gt;&lt;span style=&quot;color: rgb(108, 118, 125);&quot;&gt;■&lt;/span&gt;&lt;span style=&quot;color: rgb(108, 118, 125);&quot;&gt;■&lt;/span&gt;&lt;span style=&quot;color: rgb(108, 118, 125);&quot;&gt;■&lt;/span&gt;&lt;span style=&quot;color: rgb(108, 118, 125);&quot;&gt;■&lt;/span&gt;&lt;span style=&quot;color: rgb(108, 118, 125);&quot;&gt;■&lt;/span&gt;&lt;span style=&quot;color: rgb(108, 118, 125);&quot;&gt;■&lt;/span&gt;&lt;span style=&quot;color: rgb(108, 118, 125);&quot;&gt;■&lt;/span&gt;&lt;span style=&quot;color: rgb(108, 118, 125);&quot;&gt;■&lt;/span&gt;&lt;span style=&quot;color: rgb(108, 118, 125);&quot;&gt;■&lt;/span&gt;&lt;span style=&quot;color: rgb(108, 118, 125);&quot;&gt;■&lt;/span&gt;&lt;span style=&quot;color: rgb(108, 118, 125);&quot;&gt;■&lt;/span&gt;&lt;span style=&quot;color: rgb(108, 118, 125);&quot;&gt;■&lt;/span&gt;&lt;span style=&quot;color: rgb(108, 118, 125);&quot;&gt;■&lt;/span&gt;&lt;span style=&quot;color: rgb(108, 118, 125);&quot;&gt;■&lt;/span&gt;&lt;span style=&quot;color: rgb(108, 118, 125);&quot;&gt;■&lt;/span&gt;&lt;span style=&quot;color: rgb(108, 118, 125);&quot;&gt;■&lt;/span&gt;&lt;span style=&quot;color: rgb(108, 118, 125);&quot;&gt;■&lt;/span&gt;&lt;span style=&quot;color: rgb(108, 118, 125);&quot;&gt;■&lt;/span&gt;&lt;span style=&quot;color: rgb(108, 118, 125);&quot;&gt;■&lt;/span&gt;&lt;span style=&quot;color: rgb(108, 118, 125);&quot;&gt;■&lt;/span&gt;&lt;span style=&quot;color: rgb(108, 118, 125);&quot;&gt;■&lt;/span&gt;&lt;span style=&quot;color: rgb(108, 118, 125);&quot;&gt;■&lt;/span&gt;&lt;span style=&quot;color: rgb(108, 118, 125);&quot;&gt;■&lt;/span&gt;&lt;span style=&quot;color: rgb(108, 118, 125);&quot;&gt;■&lt;/span&gt;&lt;span style=&quot;color: rgb(108, 118, 125);&quot;&gt;■&lt;/span&gt;&lt;span style=&quot;color: rgb(108, 118, 125);&quot;&gt;■&lt;/span&gt;&lt;/span&gt;&lt;/span&gt;&lt;/span&gt;&lt;/span&gt;&lt;/span&gt;&lt;/span&gt;&lt;/span&gt;&lt;/span&gt;&lt;/span&gt;&lt;/span&gt;&lt;/span&gt;&lt;/span&gt;&lt;/span&gt;&lt;/div&gt;" style="html=1;shadow=0;dashed=0;shape=mxgraph.bootstrap.rrect;rSize=5;strokeColor=#999999;strokeWidth=1;fillColor=#FFFFFF;fontColor=#6C767D;whiteSpace=wrap;align=left;verticalAlign=middle;spacingLeft=10;fontSize=14;spacing=10;" parent="1" vertex="1">
                    <mxGeometry x="560" y="1760" width="340" height="250" as="geometry"/>
                </mxCell>
                <mxCell id="182" value="" style="group" parent="1" vertex="1" connectable="0">
                    <mxGeometry x="970" y="1690" width="80" height="80" as="geometry"/>
                </mxCell>
                <mxCell id="183" value="" style="ellipse;whiteSpace=wrap;html=1;aspect=fixed;" parent="182" vertex="1">
                    <mxGeometry width="80" height="80" as="geometry"/>
                </mxCell>
                <mxCell id="184" value="" style="shape=umlActor;verticalLabelPosition=bottom;verticalAlign=top;html=1;outlineConnect=0;" parent="182" vertex="1">
                    <mxGeometry x="25" y="10" width="30" height="60" as="geometry"/>
                </mxCell>
                <mxCell id="185" value="" style="group" parent="1" vertex="1" connectable="0">
                    <mxGeometry x="1060" y="1690" width="80" height="80" as="geometry"/>
                </mxCell>
                <mxCell id="186" value="" style="ellipse;whiteSpace=wrap;html=1;aspect=fixed;" parent="185" vertex="1">
                    <mxGeometry width="80" height="80" as="geometry"/>
                </mxCell>
                <mxCell id="187" value="" style="shape=umlActor;verticalLabelPosition=bottom;verticalAlign=top;html=1;outlineConnect=0;" parent="185" vertex="1">
                    <mxGeometry x="25" y="10" width="30" height="60" as="geometry"/>
                </mxCell>
                <mxCell id="188" value="" style="group" parent="1" vertex="1" connectable="0">
                    <mxGeometry x="1150" y="1690" width="80" height="80" as="geometry"/>
                </mxCell>
                <mxCell id="189" value="" style="ellipse;whiteSpace=wrap;html=1;aspect=fixed;" parent="188" vertex="1">
                    <mxGeometry width="80" height="80" as="geometry"/>
                </mxCell>
                <mxCell id="190" value="" style="shape=umlActor;verticalLabelPosition=bottom;verticalAlign=top;html=1;outlineConnect=0;" parent="188" vertex="1">
                    <mxGeometry x="25" y="10" width="30" height="60" as="geometry"/>
                </mxCell>
                <mxCell id="191" value="" style="group" parent="1" vertex="1" connectable="0">
                    <mxGeometry x="1240" y="1690" width="80" height="80" as="geometry"/>
                </mxCell>
                <mxCell id="192" value="" style="ellipse;whiteSpace=wrap;html=1;aspect=fixed;" parent="191" vertex="1">
                    <mxGeometry width="80" height="80" as="geometry"/>
                </mxCell>
                <mxCell id="193" value="" style="shape=umlActor;verticalLabelPosition=bottom;verticalAlign=top;html=1;outlineConnect=0;" parent="191" vertex="1">
                    <mxGeometry x="25" y="10" width="30" height="60" as="geometry"/>
                </mxCell>
                <mxCell id="194" value="Actors" style="text;html=1;align=center;verticalAlign=middle;whiteSpace=wrap;rounded=0;" parent="1" vertex="1">
                    <mxGeometry x="970" y="1650" width="55" height="30" as="geometry"/>
                </mxCell>
                <mxCell id="198" value="" style="rounded=0;whiteSpace=wrap;html=1;" parent="1" vertex="1">
                    <mxGeometry x="1425" y="1940" width="385" height="80" as="geometry"/>
                </mxCell>
                <mxCell id="199" value="Submit" style="rounded=1;whiteSpace=wrap;html=1;fillColor=#dae8fc;strokeColor=#6c8ebf;strokeWidth=3;" parent="1" vertex="1">
                    <mxGeometry x="1740" y="2030" width="70" height="35" as="geometry"/>
                </mxCell>
                <mxCell id="200" value="Post Comment" style="text;html=1;align=center;verticalAlign=middle;whiteSpace=wrap;rounded=0;" parent="1" vertex="1">
                    <mxGeometry x="1434" y="1910" width="86" height="30" as="geometry"/>
                </mxCell>
                <mxCell id="201" value="" style="verticalLabelPosition=bottom;verticalAlign=top;html=1;shape=mxgraph.basic.star;" parent="1" vertex="1">
                    <mxGeometry x="610" y="1690" width="30" height="30" as="geometry"/>
                </mxCell>
                <mxCell id="202" value="" style="verticalLabelPosition=bottom;verticalAlign=top;html=1;shape=mxgraph.basic.star;" parent="1" vertex="1">
                    <mxGeometry x="690" y="1690" width="30" height="30" as="geometry"/>
                </mxCell>
                <mxCell id="203" value="" style="verticalLabelPosition=bottom;verticalAlign=top;html=1;shape=mxgraph.basic.star;" parent="1" vertex="1">
                    <mxGeometry x="650" y="1690" width="30" height="30" as="geometry"/>
                </mxCell>
                <mxCell id="204" value="" style="verticalLabelPosition=bottom;verticalAlign=top;html=1;shape=mxgraph.basic.star;" parent="1" vertex="1">
                    <mxGeometry x="730" y="1690" width="30" height="30" as="geometry"/>
                </mxCell>
                <mxCell id="206" value="" style="ellipse;whiteSpace=wrap;html=1;aspect=fixed;" parent="1" vertex="1">
                    <mxGeometry x="970" y="1790" width="80" height="80" as="geometry"/>
                </mxCell>
                <mxCell id="207" value="" style="group" parent="1" vertex="1" connectable="0">
                    <mxGeometry x="1060" y="1790" width="80" height="80" as="geometry"/>
                </mxCell>
                <mxCell id="208" value="" style="ellipse;whiteSpace=wrap;html=1;aspect=fixed;" parent="207" vertex="1">
                    <mxGeometry width="80" height="80" as="geometry"/>
                </mxCell>
                <mxCell id="209" value="" style="shape=umlActor;verticalLabelPosition=bottom;verticalAlign=top;html=1;outlineConnect=0;" parent="207" vertex="1">
                    <mxGeometry x="25" y="10" width="30" height="60" as="geometry"/>
                </mxCell>
                <mxCell id="210" value="" style="group" parent="1" vertex="1" connectable="0">
                    <mxGeometry x="1150" y="1790" width="80" height="80" as="geometry"/>
                </mxCell>
                <mxCell id="211" value="" style="ellipse;whiteSpace=wrap;html=1;aspect=fixed;" parent="210" vertex="1">
                    <mxGeometry width="80" height="80" as="geometry"/>
                </mxCell>
                <mxCell id="212" value="" style="shape=umlActor;verticalLabelPosition=bottom;verticalAlign=top;html=1;outlineConnect=0;" parent="210" vertex="1">
                    <mxGeometry x="25" y="10" width="30" height="60" as="geometry"/>
                </mxCell>
                <mxCell id="213" value="" style="group" parent="1" vertex="1" connectable="0">
                    <mxGeometry x="1240" y="1790" width="80" height="80" as="geometry"/>
                </mxCell>
                <mxCell id="214" value="" style="ellipse;whiteSpace=wrap;html=1;aspect=fixed;" parent="213" vertex="1">
                    <mxGeometry width="80" height="80" as="geometry"/>
                </mxCell>
                <mxCell id="215" value="" style="shape=umlActor;verticalLabelPosition=bottom;verticalAlign=top;html=1;outlineConnect=0;" parent="213" vertex="1">
                    <mxGeometry x="25" y="10" width="30" height="60" as="geometry"/>
                </mxCell>
                <mxCell id="217" value="" style="group" parent="1" vertex="1" connectable="0">
                    <mxGeometry x="970" y="1790" width="80" height="80" as="geometry"/>
                </mxCell>
                <mxCell id="219" value="" style="shape=umlActor;verticalLabelPosition=bottom;verticalAlign=top;html=1;outlineConnect=0;" parent="217" vertex="1">
                    <mxGeometry x="25" y="10" width="30" height="60" as="geometry"/>
                </mxCell>
                <mxCell id="220" value="" style="group" parent="1" vertex="1" connectable="0">
                    <mxGeometry x="1060" y="1890" width="80" height="80" as="geometry"/>
                </mxCell>
                <mxCell id="221" value="" style="ellipse;whiteSpace=wrap;html=1;aspect=fixed;" parent="220" vertex="1">
                    <mxGeometry width="80" height="80" as="geometry"/>
                </mxCell>
                <mxCell id="222" value="" style="shape=umlActor;verticalLabelPosition=bottom;verticalAlign=top;html=1;outlineConnect=0;" parent="220" vertex="1">
                    <mxGeometry x="25" y="10" width="30" height="60" as="geometry"/>
                </mxCell>
                <mxCell id="223" value="" style="ellipse;whiteSpace=wrap;html=1;aspect=fixed;" parent="1" vertex="1">
                    <mxGeometry x="970" y="1890" width="80" height="80" as="geometry"/>
                </mxCell>
                <mxCell id="224" value="" style="group" parent="1" vertex="1" connectable="0">
                    <mxGeometry x="1150" y="1890" width="80" height="80" as="geometry"/>
                </mxCell>
                <mxCell id="225" value="" style="ellipse;whiteSpace=wrap;html=1;aspect=fixed;" parent="224" vertex="1">
                    <mxGeometry width="80" height="80" as="geometry"/>
                </mxCell>
                <mxCell id="226" value="" style="shape=umlActor;verticalLabelPosition=bottom;verticalAlign=top;html=1;outlineConnect=0;" parent="224" vertex="1">
                    <mxGeometry x="25" y="10" width="30" height="60" as="geometry"/>
                </mxCell>
                <mxCell id="227" value="" style="group" parent="1" vertex="1" connectable="0">
                    <mxGeometry x="1240" y="1890" width="80" height="80" as="geometry"/>
                </mxCell>
                <mxCell id="228" value="" style="ellipse;whiteSpace=wrap;html=1;aspect=fixed;" parent="227" vertex="1">
                    <mxGeometry width="80" height="80" as="geometry"/>
                </mxCell>
                <mxCell id="229" value="" style="shape=umlActor;verticalLabelPosition=bottom;verticalAlign=top;html=1;outlineConnect=0;" parent="227" vertex="1">
                    <mxGeometry x="25" y="10" width="30" height="60" as="geometry"/>
                </mxCell>
                <mxCell id="230" value="" style="group" parent="1" vertex="1" connectable="0">
                    <mxGeometry x="970" y="1890" width="80" height="80" as="geometry"/>
                </mxCell>
                <mxCell id="231" value="" style="shape=umlActor;verticalLabelPosition=bottom;verticalAlign=top;html=1;outlineConnect=0;" parent="230" vertex="1">
                    <mxGeometry x="25" y="10" width="30" height="60" as="geometry"/>
                </mxCell>
                <mxCell id="232" value="" style="group" parent="1" vertex="1" connectable="0">
                    <mxGeometry x="1060" y="1990" width="80" height="80" as="geometry"/>
                </mxCell>
                <mxCell id="233" value="" style="ellipse;whiteSpace=wrap;html=1;aspect=fixed;" parent="232" vertex="1">
                    <mxGeometry width="80" height="80" as="geometry"/>
                </mxCell>
                <mxCell id="234" value="" style="shape=umlActor;verticalLabelPosition=bottom;verticalAlign=top;html=1;outlineConnect=0;" parent="232" vertex="1">
                    <mxGeometry x="25" y="10" width="30" height="60" as="geometry"/>
                </mxCell>
                <mxCell id="235" value="" style="ellipse;whiteSpace=wrap;html=1;aspect=fixed;" parent="1" vertex="1">
                    <mxGeometry x="970" y="1990" width="80" height="80" as="geometry"/>
                </mxCell>
                <mxCell id="236" value="" style="group" parent="1" vertex="1" connectable="0">
                    <mxGeometry x="1150" y="1990" width="80" height="80" as="geometry"/>
                </mxCell>
                <mxCell id="237" value="" style="ellipse;whiteSpace=wrap;html=1;aspect=fixed;" parent="236" vertex="1">
                    <mxGeometry width="80" height="80" as="geometry"/>
                </mxCell>
                <mxCell id="238" value="" style="shape=umlActor;verticalLabelPosition=bottom;verticalAlign=top;html=1;outlineConnect=0;" parent="236" vertex="1">
                    <mxGeometry x="25" y="10" width="30" height="60" as="geometry"/>
                </mxCell>
                <mxCell id="239" value="" style="group" parent="1" vertex="1" connectable="0">
                    <mxGeometry x="1240" y="1990" width="80" height="80" as="geometry"/>
                </mxCell>
                <mxCell id="240" value="" style="ellipse;whiteSpace=wrap;html=1;aspect=fixed;" parent="239" vertex="1">
                    <mxGeometry width="80" height="80" as="geometry"/>
                </mxCell>
                <mxCell id="241" value="" style="shape=umlActor;verticalLabelPosition=bottom;verticalAlign=top;html=1;outlineConnect=0;" parent="239" vertex="1">
                    <mxGeometry x="25" y="10" width="30" height="60" as="geometry"/>
                </mxCell>
                <mxCell id="242" value="" style="group" parent="1" vertex="1" connectable="0">
                    <mxGeometry x="970" y="1990" width="80" height="80" as="geometry"/>
                </mxCell>
                <mxCell id="243" value="" style="shape=umlActor;verticalLabelPosition=bottom;verticalAlign=top;html=1;outlineConnect=0;" parent="242" vertex="1">
                    <mxGeometry x="25" y="10" width="30" height="60" as="geometry"/>
                </mxCell>
                <mxCell id="247" value="" style="edgeStyle=none;html=1;" parent="1" source="198" target="246" edge="1">
                    <mxGeometry relative="1" as="geometry">
                        <mxPoint x="2008" y="1891.7776456599286" as="targetPoint"/>
                        <mxPoint x="1795" y="1940" as="sourcePoint"/>
                    </mxGeometry>
                </mxCell>
                <mxCell id="246" value="Available only if connected" style="text;html=1;align=center;verticalAlign=middle;whiteSpace=wrap;rounded=0;" parent="1" vertex="1">
                    <mxGeometry x="2000" y="1870" width="150" height="30" as="geometry"/>
                </mxCell>
                <mxCell id="248" value="&lt;span style=&quot;font-size: 14px; text-align: left; color: rgb(108, 118, 125);&quot;&gt;■&lt;/span&gt;&lt;span style=&quot;font-size: 14px; text-align: left; color: rgb(108, 118, 125);&quot;&gt;■&lt;/span&gt;&lt;span style=&quot;font-size: 14px; text-align: left; color: rgb(108, 118, 125);&quot;&gt;■&lt;/span&gt;&lt;span style=&quot;font-size: 14px; text-align: left; color: rgb(108, 118, 125);&quot;&gt;■&lt;/span&gt;&lt;span style=&quot;font-size: 14px; text-align: left; color: rgb(108, 118, 125);&quot;&gt;■&lt;/span&gt;&lt;span style=&quot;font-size: 14px; text-align: left; color: rgb(108, 118, 125);&quot;&gt;■&lt;/span&gt;&lt;span style=&quot;font-size: 14px; text-align: left; color: rgb(108, 118, 125);&quot;&gt;■&lt;/span&gt;&lt;span style=&quot;font-size: 14px; text-align: left; color: rgb(108, 118, 125);&quot;&gt;■&lt;/span&gt;&lt;span style=&quot;font-size: 14px; text-align: left; color: rgb(108, 118, 125);&quot;&gt;■&lt;/span&gt;&lt;span style=&quot;font-size: 14px; text-align: left; color: rgb(108, 118, 125);&quot;&gt;■&lt;/span&gt;&lt;span style=&quot;font-size: 14px; text-align: left; color: rgb(108, 118, 125);&quot;&gt;■&lt;/span&gt;&lt;span style=&quot;font-size: 14px; text-align: left; color: rgb(108, 118, 125);&quot;&gt;■&lt;/span&gt;&lt;span style=&quot;font-size: 14px; text-align: left; color: rgb(108, 118, 125);&quot;&gt;■&lt;/span&gt;&lt;span style=&quot;font-size: 14px; text-align: left; color: rgb(108, 118, 125);&quot;&gt;■&lt;/span&gt;&lt;span style=&quot;font-size: 14px; text-align: left; color: rgb(108, 118, 125);&quot;&gt;■&lt;/span&gt;&lt;span style=&quot;font-size: 14px; text-align: left; color: rgb(108, 118, 125);&quot;&gt;■&lt;/span&gt;&lt;span style=&quot;font-size: 14px; text-align: left; color: rgb(108, 118, 125);&quot;&gt;■&lt;/span&gt;&lt;span style=&quot;font-size: 14px; text-align: left; color: rgb(108, 118, 125);&quot;&gt;■&lt;/span&gt;&lt;span style=&quot;font-size: 14px; text-align: left; color: rgb(108, 118, 125);&quot;&gt;■&lt;/span&gt;&lt;span style=&quot;font-size: 14px; text-align: left; color: rgb(108, 118, 125);&quot;&gt;■&lt;/span&gt;&lt;span style=&quot;font-size: 14px; text-align: left; color: rgb(108, 118, 125);&quot;&gt;■&lt;/span&gt;&lt;span style=&quot;font-size: 14px; text-align: left; color: rgb(108, 118, 125);&quot;&gt;■&lt;/span&gt;&lt;span style=&quot;font-size: 14px; text-align: left; color: rgb(108, 118, 125);&quot;&gt;■&lt;/span&gt;&lt;span style=&quot;font-size: 14px; text-align: left; color: rgb(108, 118, 125);&quot;&gt;■&lt;/span&gt;&lt;span style=&quot;font-size: 14px; text-align: left; color: rgb(108, 118, 125);&quot;&gt;■&lt;/span&gt;&lt;span style=&quot;font-size: 14px; text-align: left; color: rgb(108, 118, 125);&quot;&gt;■&lt;/span&gt;&lt;span style=&quot;font-size: 14px; text-align: left; color: rgb(108, 118, 125);&quot;&gt;■&lt;/span&gt;&lt;span style=&quot;font-size: 14px; text-align: left; color: rgb(108, 118, 125);&quot;&gt;■&lt;/span&gt;&lt;span style=&quot;font-size: 14px; text-align: left; color: rgb(108, 118, 125);&quot;&gt;■&lt;/span&gt;&lt;span style=&quot;font-size: 14px; text-align: left; color: rgb(108, 118, 125);&quot;&gt;■&lt;/span&gt;&lt;span style=&quot;font-size: 14px; text-align: left; color: rgb(108, 118, 125);&quot;&gt;■&lt;/span&gt;&lt;span style=&quot;font-size: 14px; text-align: left; color: rgb(108, 118, 125);&quot;&gt;■&lt;/span&gt;&lt;span style=&quot;font-size: 14px; text-align: left; color: rgb(108, 118, 125);&quot;&gt;■&lt;/span&gt;&lt;span style=&quot;font-size: 14px; text-align: left; color: rgb(108, 118, 125);&quot;&gt;■&lt;/span&gt;&lt;span style=&quot;font-size: 14px; text-align: left; color: rgb(108, 118, 125);&quot;&gt;■&lt;/span&gt;&lt;span style=&quot;font-size: 14px; text-align: left; color: rgb(108, 118, 125);&quot;&gt;■&lt;/span&gt;&lt;div&gt;&lt;span style=&quot;font-size: 14px; text-align: left; color: rgb(108, 118, 125);&quot;&gt;&lt;span style=&quot;color: rgb(108, 118, 125);&quot;&gt;■&lt;/span&gt;&lt;span style=&quot;color: rgb(108, 118, 125);&quot;&gt;■&lt;/span&gt;&lt;span style=&quot;color: rgb(108, 118, 125);&quot;&gt;■&lt;/span&gt;&lt;span style=&quot;color: rgb(108, 118, 125);&quot;&gt;■&lt;/span&gt;&lt;span style=&quot;color: rgb(108, 118, 125);&quot;&gt;■&lt;/span&gt;&lt;span style=&quot;color: rgb(108, 118, 125);&quot;&gt;■&lt;/span&gt;&lt;span style=&quot;color: rgb(108, 118, 125);&quot;&gt;■&lt;/span&gt;&lt;span style=&quot;color: rgb(108, 118, 125);&quot;&gt;■&lt;/span&gt;&lt;span style=&quot;color: rgb(108, 118, 125);&quot;&gt;■&lt;/span&gt;&lt;span style=&quot;color: rgb(108, 118, 125);&quot;&gt;■&lt;/span&gt;&lt;span style=&quot;color: rgb(108, 118, 125);&quot;&gt;■&lt;/span&gt;&lt;span style=&quot;color: rgb(108, 118, 125);&quot;&gt;■&lt;/span&gt;&lt;span style=&quot;color: rgb(108, 118, 125);&quot;&gt;■&lt;/span&gt;&lt;span style=&quot;color: rgb(108, 118, 125);&quot;&gt;■&lt;/span&gt;&lt;span style=&quot;color: rgb(108, 118, 125);&quot;&gt;■&lt;/span&gt;&lt;span style=&quot;color: rgb(108, 118, 125);&quot;&gt;■&lt;/span&gt;&lt;span style=&quot;color: rgb(108, 118, 125);&quot;&gt;■&lt;/span&gt;&lt;span style=&quot;color: rgb(108, 118, 125);&quot;&gt;■&lt;/span&gt;&lt;span style=&quot;color: rgb(108, 118, 125);&quot;&gt;■&lt;/span&gt;&lt;span style=&quot;color: rgb(108, 118, 125);&quot;&gt;■&lt;/span&gt;&lt;span style=&quot;color: rgb(108, 118, 125);&quot;&gt;■&lt;/span&gt;&lt;span style=&quot;color: rgb(108, 118, 125);&quot;&gt;■&lt;/span&gt;&lt;span style=&quot;color: rgb(108, 118, 125);&quot;&gt;■&lt;/span&gt;&lt;span style=&quot;color: rgb(108, 118, 125);&quot;&gt;■&lt;/span&gt;&lt;span style=&quot;color: rgb(108, 118, 125);&quot;&gt;■&lt;/span&gt;&lt;span style=&quot;color: rgb(108, 118, 125);&quot;&gt;■&lt;/span&gt;&lt;span style=&quot;color: rgb(108, 118, 125);&quot;&gt;■&lt;/span&gt;&lt;span style=&quot;color: rgb(108, 118, 125);&quot;&gt;■&lt;/span&gt;&lt;span style=&quot;color: rgb(108, 118, 125);&quot;&gt;■&lt;/span&gt;&lt;span style=&quot;color: rgb(108, 118, 125);&quot;&gt;■&lt;/span&gt;&lt;span style=&quot;color: rgb(108, 118, 125);&quot;&gt;■&lt;/span&gt;&lt;span style=&quot;color: rgb(108, 118, 125);&quot;&gt;■&lt;/span&gt;&lt;span style=&quot;color: rgb(108, 118, 125);&quot;&gt;■&lt;/span&gt;&lt;span style=&quot;color: rgb(108, 118, 125);&quot;&gt;■&lt;/span&gt;&lt;span style=&quot;color: rgb(108, 118, 125);&quot;&gt;■&lt;/span&gt;&lt;span style=&quot;color: rgb(108, 118, 125);&quot;&gt;■&lt;/span&gt;&lt;/span&gt;&lt;/div&gt;&lt;div&gt;&lt;span style=&quot;font-size: 14px; text-align: left; color: rgb(108, 118, 125);&quot;&gt;&lt;span style=&quot;color: rgb(108, 118, 125);&quot;&gt;&lt;span style=&quot;color: rgb(108, 118, 125);&quot;&gt;■&lt;/span&gt;&lt;span style=&quot;color: rgb(108, 118, 125);&quot;&gt;■&lt;/span&gt;&lt;span style=&quot;color: rgb(108, 118, 125);&quot;&gt;■&lt;/span&gt;&lt;span style=&quot;color: rgb(108, 118, 125);&quot;&gt;■&lt;/span&gt;&lt;span style=&quot;color: rgb(108, 118, 125);&quot;&gt;■&lt;/span&gt;&lt;span style=&quot;color: rgb(108, 118, 125);&quot;&gt;■&lt;/span&gt;&lt;span style=&quot;color: rgb(108, 118, 125);&quot;&gt;■&lt;/span&gt;&lt;span style=&quot;color: rgb(108, 118, 125);&quot;&gt;■&lt;/span&gt;&lt;span style=&quot;color: rgb(108, 118, 125);&quot;&gt;■&lt;/span&gt;&lt;span style=&quot;color: rgb(108, 118, 125);&quot;&gt;■&lt;/span&gt;&lt;span style=&quot;color: rgb(108, 118, 125);&quot;&gt;■&lt;/span&gt;&lt;span style=&quot;color: rgb(108, 118, 125);&quot;&gt;■&lt;/span&gt;&lt;span style=&quot;color: rgb(108, 118, 125);&quot;&gt;■&lt;/span&gt;&lt;span style=&quot;color: rgb(108, 118, 125);&quot;&gt;■&lt;/span&gt;&lt;span style=&quot;color: rgb(108, 118, 125);&quot;&gt;■&lt;/span&gt;&lt;span style=&quot;color: rgb(108, 118, 125);&quot;&gt;■&lt;/span&gt;&lt;span style=&quot;color: rgb(108, 118, 125);&quot;&gt;■&lt;/span&gt;&lt;span style=&quot;color: rgb(108, 118, 125);&quot;&gt;■&lt;/span&gt;&lt;span style=&quot;color: rgb(108, 118, 125);&quot;&gt;■&lt;/span&gt;&lt;span style=&quot;color: rgb(108, 118, 125);&quot;&gt;■&lt;/span&gt;&lt;span style=&quot;color: rgb(108, 118, 125);&quot;&gt;■&lt;/span&gt;&lt;span style=&quot;color: rgb(108, 118, 125);&quot;&gt;■&lt;/span&gt;&lt;span style=&quot;color: rgb(108, 118, 125);&quot;&gt;■&lt;/span&gt;&lt;span style=&quot;color: rgb(108, 118, 125);&quot;&gt;■&lt;/span&gt;&lt;span style=&quot;color: rgb(108, 118, 125);&quot;&gt;■&lt;/span&gt;&lt;span style=&quot;color: rgb(108, 118, 125);&quot;&gt;■&lt;/span&gt;&lt;span style=&quot;color: rgb(108, 118, 125);&quot;&gt;■&lt;/span&gt;&lt;span style=&quot;color: rgb(108, 118, 125);&quot;&gt;■&lt;/span&gt;&lt;span style=&quot;color: rgb(108, 118, 125);&quot;&gt;■&lt;/span&gt;&lt;span style=&quot;color: rgb(108, 118, 125);&quot;&gt;■&lt;/span&gt;&lt;span style=&quot;color: rgb(108, 118, 125);&quot;&gt;■&lt;/span&gt;&lt;span style=&quot;color: rgb(108, 118, 125);&quot;&gt;■&lt;/span&gt;&lt;span style=&quot;color: rgb(108, 118, 125);&quot;&gt;■&lt;/span&gt;&lt;span style=&quot;color: rgb(108, 118, 125);&quot;&gt;■&lt;/span&gt;&lt;span style=&quot;color: rgb(108, 118, 125);&quot;&gt;■&lt;/span&gt;&lt;span style=&quot;color: rgb(108, 118, 125);&quot;&gt;■&lt;/span&gt;&lt;/span&gt;&lt;/span&gt;&lt;/div&gt;&lt;div&gt;&lt;span style=&quot;font-size: 14px; text-align: left; color: rgb(108, 118, 125);&quot;&gt;&lt;span style=&quot;color: rgb(108, 118, 125);&quot;&gt;&lt;span style=&quot;color: rgb(108, 118, 125);&quot;&gt;&lt;span style=&quot;color: rgb(108, 118, 125);&quot;&gt;■&lt;/span&gt;&lt;span style=&quot;color: rgb(108, 118, 125);&quot;&gt;■&lt;/span&gt;&lt;span style=&quot;color: rgb(108, 118, 125);&quot;&gt;■&lt;/span&gt;&lt;span style=&quot;color: rgb(108, 118, 125);&quot;&gt;■&lt;/span&gt;&lt;span style=&quot;color: rgb(108, 118, 125);&quot;&gt;■&lt;/span&gt;&lt;span style=&quot;color: rgb(108, 118, 125);&quot;&gt;■&lt;/span&gt;&lt;span style=&quot;color: rgb(108, 118, 125);&quot;&gt;■&lt;/span&gt;&lt;span style=&quot;color: rgb(108, 118, 125);&quot;&gt;■&lt;/span&gt;&lt;span style=&quot;color: rgb(108, 118, 125);&quot;&gt;■&lt;/span&gt;&lt;span style=&quot;color: rgb(108, 118, 125);&quot;&gt;■&lt;/span&gt;&lt;span style=&quot;color: rgb(108, 118, 125);&quot;&gt;■&lt;/span&gt;&lt;span style=&quot;color: rgb(108, 118, 125);&quot;&gt;■&lt;/span&gt;&lt;span style=&quot;color: rgb(108, 118, 125);&quot;&gt;■&lt;/span&gt;&lt;span style=&quot;color: rgb(108, 118, 125);&quot;&gt;■&lt;/span&gt;&lt;span style=&quot;color: rgb(108, 118, 125);&quot;&gt;■&lt;/span&gt;&lt;span style=&quot;color: rgb(108, 118, 125);&quot;&gt;■&lt;/span&gt;&lt;span style=&quot;color: rgb(108, 118, 125);&quot;&gt;■&lt;/span&gt;&lt;span style=&quot;color: rgb(108, 118, 125);&quot;&gt;■&lt;/span&gt;&lt;span style=&quot;color: rgb(108, 118, 125);&quot;&gt;■&lt;/span&gt;&lt;span style=&quot;color: rgb(108, 118, 125);&quot;&gt;■&lt;/span&gt;&lt;span style=&quot;color: rgb(108, 118, 125);&quot;&gt;■&lt;/span&gt;&lt;span style=&quot;color: rgb(108, 118, 125);&quot;&gt;■&lt;/span&gt;&lt;span style=&quot;color: rgb(108, 118, 125);&quot;&gt;■&lt;/span&gt;&lt;span style=&quot;color: rgb(108, 118, 125);&quot;&gt;■&lt;/span&gt;&lt;span style=&quot;color: rgb(108, 118, 125);&quot;&gt;■&lt;/span&gt;&lt;span style=&quot;color: rgb(108, 118, 125);&quot;&gt;■&lt;/span&gt;&lt;span style=&quot;color: rgb(108, 118, 125);&quot;&gt;■&lt;/span&gt;&lt;span style=&quot;color: rgb(108, 118, 125);&quot;&gt;■&lt;/span&gt;&lt;span style=&quot;color: rgb(108, 118, 125);&quot;&gt;■&lt;/span&gt;&lt;span style=&quot;color: rgb(108, 118, 125);&quot;&gt;■&lt;/span&gt;&lt;span style=&quot;color: rgb(108, 118, 125);&quot;&gt;■&lt;/span&gt;&lt;span style=&quot;color: rgb(108, 118, 125);&quot;&gt;■&lt;/span&gt;&lt;span style=&quot;color: rgb(108, 118, 125);&quot;&gt;■&lt;/span&gt;&lt;span style=&quot;color: rgb(108, 118, 125);&quot;&gt;■&lt;/span&gt;&lt;span style=&quot;color: rgb(108, 118, 125);&quot;&gt;■&lt;/span&gt;&lt;span style=&quot;color: rgb(108, 118, 125);&quot;&gt;■&lt;/span&gt;&lt;/span&gt;&lt;/span&gt;&lt;/span&gt;&lt;/div&gt;" style="rounded=0;whiteSpace=wrap;html=1;" parent="1" vertex="1">
                    <mxGeometry x="1427.5" y="1690" width="385" height="80" as="geometry"/>
                </mxCell>
                <mxCell id="249" value="&lt;span style=&quot;font-size: 14px; text-align: left; color: rgb(108, 118, 125);&quot;&gt;■&lt;/span&gt;&lt;span style=&quot;font-size: 14px; text-align: left; color: rgb(108, 118, 125);&quot;&gt;■&lt;/span&gt;&lt;span style=&quot;font-size: 14px; text-align: left; color: rgb(108, 118, 125);&quot;&gt;■&lt;/span&gt;&lt;span style=&quot;font-size: 14px; text-align: left; color: rgb(108, 118, 125);&quot;&gt;■&lt;/span&gt;&lt;span style=&quot;font-size: 14px; text-align: left; color: rgb(108, 118, 125);&quot;&gt;■&lt;/span&gt;&lt;span style=&quot;font-size: 14px; text-align: left; color: rgb(108, 118, 125);&quot;&gt;■&lt;/span&gt;&lt;span style=&quot;font-size: 14px; text-align: left; color: rgb(108, 118, 125);&quot;&gt;■&lt;/span&gt;&lt;span style=&quot;font-size: 14px; text-align: left; color: rgb(108, 118, 125);&quot;&gt;■&lt;/span&gt;&lt;span style=&quot;font-size: 14px; text-align: left; color: rgb(108, 118, 125);&quot;&gt;■&lt;/span&gt;&lt;span style=&quot;font-size: 14px; text-align: left; color: rgb(108, 118, 125);&quot;&gt;■&lt;/span&gt;&lt;span style=&quot;font-size: 14px; text-align: left; color: rgb(108, 118, 125);&quot;&gt;■&lt;/span&gt;&lt;span style=&quot;font-size: 14px; text-align: left; color: rgb(108, 118, 125);&quot;&gt;■&lt;/span&gt;&lt;span style=&quot;font-size: 14px; text-align: left; color: rgb(108, 118, 125);&quot;&gt;■&lt;/span&gt;&lt;span style=&quot;font-size: 14px; text-align: left; color: rgb(108, 118, 125);&quot;&gt;■&lt;/span&gt;&lt;span style=&quot;font-size: 14px; text-align: left; color: rgb(108, 118, 125);&quot;&gt;■&lt;/span&gt;&lt;span style=&quot;font-size: 14px; text-align: left; color: rgb(108, 118, 125);&quot;&gt;■&lt;/span&gt;&lt;span style=&quot;font-size: 14px; text-align: left; color: rgb(108, 118, 125);&quot;&gt;■&lt;/span&gt;&lt;span style=&quot;font-size: 14px; text-align: left; color: rgb(108, 118, 125);&quot;&gt;■&lt;/span&gt;&lt;span style=&quot;font-size: 14px; text-align: left; color: rgb(108, 118, 125);&quot;&gt;■&lt;/span&gt;&lt;span style=&quot;font-size: 14px; text-align: left; color: rgb(108, 118, 125);&quot;&gt;■&lt;/span&gt;&lt;span style=&quot;font-size: 14px; text-align: left; color: rgb(108, 118, 125);&quot;&gt;■&lt;/span&gt;&lt;span style=&quot;font-size: 14px; text-align: left; color: rgb(108, 118, 125);&quot;&gt;■&lt;/span&gt;&lt;span style=&quot;font-size: 14px; text-align: left; color: rgb(108, 118, 125);&quot;&gt;■&lt;/span&gt;&lt;span style=&quot;font-size: 14px; text-align: left; color: rgb(108, 118, 125);&quot;&gt;■&lt;/span&gt;&lt;span style=&quot;font-size: 14px; text-align: left; color: rgb(108, 118, 125);&quot;&gt;■&lt;/span&gt;&lt;span style=&quot;font-size: 14px; text-align: left; color: rgb(108, 118, 125);&quot;&gt;■&lt;/span&gt;&lt;span style=&quot;font-size: 14px; text-align: left; color: rgb(108, 118, 125);&quot;&gt;■&lt;/span&gt;&lt;span style=&quot;font-size: 14px; text-align: left; color: rgb(108, 118, 125);&quot;&gt;■&lt;/span&gt;&lt;span style=&quot;font-size: 14px; text-align: left; color: rgb(108, 118, 125);&quot;&gt;■&lt;/span&gt;&lt;span style=&quot;font-size: 14px; text-align: left; color: rgb(108, 118, 125);&quot;&gt;■&lt;/span&gt;&lt;span style=&quot;font-size: 14px; text-align: left; color: rgb(108, 118, 125);&quot;&gt;■&lt;/span&gt;&lt;span style=&quot;font-size: 14px; text-align: left; color: rgb(108, 118, 125);&quot;&gt;■&lt;/span&gt;&lt;span style=&quot;font-size: 14px; text-align: left; color: rgb(108, 118, 125);&quot;&gt;■&lt;/span&gt;&lt;span style=&quot;font-size: 14px; text-align: left; color: rgb(108, 118, 125);&quot;&gt;■&lt;/span&gt;&lt;span style=&quot;font-size: 14px; text-align: left; color: rgb(108, 118, 125);&quot;&gt;■&lt;/span&gt;&lt;span style=&quot;font-size: 14px; text-align: left; color: rgb(108, 118, 125);&quot;&gt;■&lt;/span&gt;&lt;div&gt;&lt;span style=&quot;font-size: 14px; text-align: left; color: rgb(108, 118, 125);&quot;&gt;&lt;span style=&quot;color: rgb(108, 118, 125);&quot;&gt;■&lt;/span&gt;&lt;span style=&quot;color: rgb(108, 118, 125);&quot;&gt;■&lt;/span&gt;&lt;span style=&quot;color: rgb(108, 118, 125);&quot;&gt;■&lt;/span&gt;&lt;span style=&quot;color: rgb(108, 118, 125);&quot;&gt;■&lt;/span&gt;&lt;span style=&quot;color: rgb(108, 118, 125);&quot;&gt;■&lt;/span&gt;&lt;span style=&quot;color: rgb(108, 118, 125);&quot;&gt;■&lt;/span&gt;&lt;span style=&quot;color: rgb(108, 118, 125);&quot;&gt;■&lt;/span&gt;&lt;span style=&quot;color: rgb(108, 118, 125);&quot;&gt;■&lt;/span&gt;&lt;span style=&quot;color: rgb(108, 118, 125);&quot;&gt;■&lt;/span&gt;&lt;span style=&quot;color: rgb(108, 118, 125);&quot;&gt;■&lt;/span&gt;&lt;span style=&quot;color: rgb(108, 118, 125);&quot;&gt;■&lt;/span&gt;&lt;span style=&quot;color: rgb(108, 118, 125);&quot;&gt;■&lt;/span&gt;&lt;span style=&quot;color: rgb(108, 118, 125);&quot;&gt;■&lt;/span&gt;&lt;span style=&quot;color: rgb(108, 118, 125);&quot;&gt;■&lt;/span&gt;&lt;span style=&quot;color: rgb(108, 118, 125);&quot;&gt;■&lt;/span&gt;&lt;span style=&quot;color: rgb(108, 118, 125);&quot;&gt;■&lt;/span&gt;&lt;span style=&quot;color: rgb(108, 118, 125);&quot;&gt;■&lt;/span&gt;&lt;span style=&quot;color: rgb(108, 118, 125);&quot;&gt;■&lt;/span&gt;&lt;span style=&quot;color: rgb(108, 118, 125);&quot;&gt;■&lt;/span&gt;&lt;span style=&quot;color: rgb(108, 118, 125);&quot;&gt;■&lt;/span&gt;&lt;span style=&quot;color: rgb(108, 118, 125);&quot;&gt;■&lt;/span&gt;&lt;span style=&quot;color: rgb(108, 118, 125);&quot;&gt;■&lt;/span&gt;&lt;span style=&quot;color: rgb(108, 118, 125);&quot;&gt;■&lt;/span&gt;&lt;span style=&quot;color: rgb(108, 118, 125);&quot;&gt;■&lt;/span&gt;&lt;span style=&quot;color: rgb(108, 118, 125);&quot;&gt;■&lt;/span&gt;&lt;span style=&quot;color: rgb(108, 118, 125);&quot;&gt;■&lt;/span&gt;&lt;span style=&quot;color: rgb(108, 118, 125);&quot;&gt;■&lt;/span&gt;&lt;span style=&quot;color: rgb(108, 118, 125);&quot;&gt;■&lt;/span&gt;&lt;span style=&quot;color: rgb(108, 118, 125);&quot;&gt;■&lt;/span&gt;&lt;span style=&quot;color: rgb(108, 118, 125);&quot;&gt;■&lt;/span&gt;&lt;span style=&quot;color: rgb(108, 118, 125);&quot;&gt;■&lt;/span&gt;&lt;span style=&quot;color: rgb(108, 118, 125);&quot;&gt;■&lt;/span&gt;&lt;span style=&quot;color: rgb(108, 118, 125);&quot;&gt;■&lt;/span&gt;&lt;span style=&quot;color: rgb(108, 118, 125);&quot;&gt;■&lt;/span&gt;&lt;span style=&quot;color: rgb(108, 118, 125);&quot;&gt;■&lt;/span&gt;&lt;span style=&quot;color: rgb(108, 118, 125);&quot;&gt;■&lt;/span&gt;&lt;/span&gt;&lt;/div&gt;&lt;div&gt;&lt;span style=&quot;font-size: 14px; text-align: left; color: rgb(108, 118, 125);&quot;&gt;&lt;span style=&quot;color: rgb(108, 118, 125);&quot;&gt;&lt;span style=&quot;color: rgb(108, 118, 125);&quot;&gt;■&lt;/span&gt;&lt;span style=&quot;color: rgb(108, 118, 125);&quot;&gt;■&lt;/span&gt;&lt;span style=&quot;color: rgb(108, 118, 125);&quot;&gt;■&lt;/span&gt;&lt;span style=&quot;color: rgb(108, 118, 125);&quot;&gt;■&lt;/span&gt;&lt;span style=&quot;color: rgb(108, 118, 125);&quot;&gt;■&lt;/span&gt;&lt;span style=&quot;color: rgb(108, 118, 125);&quot;&gt;■&lt;/span&gt;&lt;span style=&quot;color: rgb(108, 118, 125);&quot;&gt;■&lt;/span&gt;&lt;span style=&quot;color: rgb(108, 118, 125);&quot;&gt;■&lt;/span&gt;&lt;span style=&quot;color: rgb(108, 118, 125);&quot;&gt;■&lt;/span&gt;&lt;span style=&quot;color: rgb(108, 118, 125);&quot;&gt;■&lt;/span&gt;&lt;span style=&quot;color: rgb(108, 118, 125);&quot;&gt;■&lt;/span&gt;&lt;span style=&quot;color: rgb(108, 118, 125);&quot;&gt;■&lt;/span&gt;&lt;span style=&quot;color: rgb(108, 118, 125);&quot;&gt;■&lt;/span&gt;&lt;span style=&quot;color: rgb(108, 118, 125);&quot;&gt;■&lt;/span&gt;&lt;span style=&quot;color: rgb(108, 118, 125);&quot;&gt;■&lt;/span&gt;&lt;span style=&quot;color: rgb(108, 118, 125);&quot;&gt;■&lt;/span&gt;&lt;span style=&quot;color: rgb(108, 118, 125);&quot;&gt;■&lt;/span&gt;&lt;span style=&quot;color: rgb(108, 118, 125);&quot;&gt;■&lt;/span&gt;&lt;span style=&quot;color: rgb(108, 118, 125);&quot;&gt;■&lt;/span&gt;&lt;span style=&quot;color: rgb(108, 118, 125);&quot;&gt;■&lt;/span&gt;&lt;span style=&quot;color: rgb(108, 118, 125);&quot;&gt;■&lt;/span&gt;&lt;span style=&quot;color: rgb(108, 118, 125);&quot;&gt;■&lt;/span&gt;&lt;span style=&quot;color: rgb(108, 118, 125);&quot;&gt;■&lt;/span&gt;&lt;span style=&quot;color: rgb(108, 118, 125);&quot;&gt;■&lt;/span&gt;&lt;span style=&quot;color: rgb(108, 118, 125);&quot;&gt;■&lt;/span&gt;&lt;span style=&quot;color: rgb(108, 118, 125);&quot;&gt;■&lt;/span&gt;&lt;span style=&quot;color: rgb(108, 118, 125);&quot;&gt;■&lt;/span&gt;&lt;span style=&quot;color: rgb(108, 118, 125);&quot;&gt;■&lt;/span&gt;&lt;span style=&quot;color: rgb(108, 118, 125);&quot;&gt;■&lt;/span&gt;&lt;span style=&quot;color: rgb(108, 118, 125);&quot;&gt;■&lt;/span&gt;&lt;span style=&quot;color: rgb(108, 118, 125);&quot;&gt;■&lt;/span&gt;&lt;span style=&quot;color: rgb(108, 118, 125);&quot;&gt;■&lt;/span&gt;&lt;span style=&quot;color: rgb(108, 118, 125);&quot;&gt;■&lt;/span&gt;&lt;span style=&quot;color: rgb(108, 118, 125);&quot;&gt;■&lt;/span&gt;&lt;span style=&quot;color: rgb(108, 118, 125);&quot;&gt;■&lt;/span&gt;&lt;span style=&quot;color: rgb(108, 118, 125);&quot;&gt;■&lt;/span&gt;&lt;/span&gt;&lt;/span&gt;&lt;/div&gt;&lt;div&gt;&lt;span style=&quot;font-size: 14px; text-align: left; color: rgb(108, 118, 125);&quot;&gt;&lt;span style=&quot;color: rgb(108, 118, 125);&quot;&gt;&lt;span style=&quot;color: rgb(108, 118, 125);&quot;&gt;&lt;span style=&quot;color: rgb(108, 118, 125);&quot;&gt;■&lt;/span&gt;&lt;span style=&quot;color: rgb(108, 118, 125);&quot;&gt;■&lt;/span&gt;&lt;span style=&quot;color: rgb(108, 118, 125);&quot;&gt;■&lt;/span&gt;&lt;span style=&quot;color: rgb(108, 118, 125);&quot;&gt;■&lt;/span&gt;&lt;span style=&quot;color: rgb(108, 118, 125);&quot;&gt;■&lt;/span&gt;&lt;span style=&quot;color: rgb(108, 118, 125);&quot;&gt;■&lt;/span&gt;&lt;span style=&quot;color: rgb(108, 118, 125);&quot;&gt;■&lt;/span&gt;&lt;span style=&quot;color: rgb(108, 118, 125);&quot;&gt;■&lt;/span&gt;&lt;span style=&quot;color: rgb(108, 118, 125);&quot;&gt;■&lt;/span&gt;&lt;span style=&quot;color: rgb(108, 118, 125);&quot;&gt;■&lt;/span&gt;&lt;span style=&quot;color: rgb(108, 118, 125);&quot;&gt;■&lt;/span&gt;&lt;span style=&quot;color: rgb(108, 118, 125);&quot;&gt;■&lt;/span&gt;&lt;span style=&quot;color: rgb(108, 118, 125);&quot;&gt;■&lt;/span&gt;&lt;span style=&quot;color: rgb(108, 118, 125);&quot;&gt;■&lt;/span&gt;&lt;span style=&quot;color: rgb(108, 118, 125);&quot;&gt;■&lt;/span&gt;&lt;span style=&quot;color: rgb(108, 118, 125);&quot;&gt;■&lt;/span&gt;&lt;span style=&quot;color: rgb(108, 118, 125);&quot;&gt;■&lt;/span&gt;&lt;span style=&quot;color: rgb(108, 118, 125);&quot;&gt;■&lt;/span&gt;&lt;span style=&quot;color: rgb(108, 118, 125);&quot;&gt;■&lt;/span&gt;&lt;span style=&quot;color: rgb(108, 118, 125);&quot;&gt;■&lt;/span&gt;&lt;span style=&quot;color: rgb(108, 118, 125);&quot;&gt;■&lt;/span&gt;&lt;span style=&quot;color: rgb(108, 118, 125);&quot;&gt;■&lt;/span&gt;&lt;span style=&quot;color: rgb(108, 118, 125);&quot;&gt;■&lt;/span&gt;&lt;span style=&quot;color: rgb(108, 118, 125);&quot;&gt;■&lt;/span&gt;&lt;span style=&quot;color: rgb(108, 118, 125);&quot;&gt;■&lt;/span&gt;&lt;span style=&quot;color: rgb(108, 118, 125);&quot;&gt;■&lt;/span&gt;&lt;span style=&quot;color: rgb(108, 118, 125);&quot;&gt;■&lt;/span&gt;&lt;span style=&quot;color: rgb(108, 118, 125);&quot;&gt;■&lt;/span&gt;&lt;span style=&quot;color: rgb(108, 118, 125);&quot;&gt;■&lt;/span&gt;&lt;span style=&quot;color: rgb(108, 118, 125);&quot;&gt;■&lt;/span&gt;&lt;span style=&quot;color: rgb(108, 118, 125);&quot;&gt;■&lt;/span&gt;&lt;span style=&quot;color: rgb(108, 118, 125);&quot;&gt;■&lt;/span&gt;&lt;span style=&quot;color: rgb(108, 118, 125);&quot;&gt;■&lt;/span&gt;&lt;span style=&quot;color: rgb(108, 118, 125);&quot;&gt;■&lt;/span&gt;&lt;span style=&quot;color: rgb(108, 118, 125);&quot;&gt;■&lt;/span&gt;&lt;span style=&quot;color: rgb(108, 118, 125);&quot;&gt;■&lt;/span&gt;&lt;/span&gt;&lt;/span&gt;&lt;/span&gt;&lt;/div&gt;" style="rounded=0;whiteSpace=wrap;html=1;" parent="1" vertex="1">
                    <mxGeometry x="1427.5" y="1796" width="385" height="80" as="geometry"/>
                </mxCell>
                <UserObject label="%date{ddd mmm dd yyyy HH:MM:ss}%" placeholders="1" id="251">
                    <mxCell style="text;html=1;strokeColor=none;fillColor=none;align=center;verticalAlign=middle;whiteSpace=wrap;overflow=hidden;" parent="1" vertex="1">
                        <mxGeometry x="1655.79" y="1770" width="160" height="20" as="geometry"/>
                    </mxCell>
                </UserObject>
                <UserObject label="%date{ddd mmm dd yyyy HH:MM:ss}%" placeholders="1" id="252">
                    <mxCell style="text;html=1;strokeColor=none;fillColor=none;align=center;verticalAlign=middle;whiteSpace=wrap;overflow=hidden;" parent="1" vertex="1">
                        <mxGeometry x="1652.5" y="1880" width="160" height="20" as="geometry"/>
                    </mxCell>
                </UserObject>
                <mxCell id="253" value="&lt;span style=&quot;font-size: 14px; text-align: left; color: rgb(108, 118, 125);&quot;&gt;■&lt;/span&gt;&lt;span style=&quot;font-size: 14px; text-align: left; color: rgb(108, 118, 125);&quot;&gt;■&lt;/span&gt;&lt;span style=&quot;font-size: 14px; text-align: left; color: rgb(108, 118, 125);&quot;&gt;■&lt;/span&gt;&lt;span style=&quot;font-size: 14px; text-align: left; color: rgb(108, 118, 125);&quot;&gt;■&lt;/span&gt;&lt;span style=&quot;font-size: 14px; text-align: left; color: rgb(108, 118, 125);&quot;&gt;■&lt;/span&gt;&lt;span style=&quot;font-size: 14px; text-align: left; color: rgb(108, 118, 125);&quot;&gt;■&lt;/span&gt;&lt;span style=&quot;font-size: 14px; text-align: left; color: rgb(108, 118, 125);&quot;&gt;■&lt;/span&gt;&lt;span style=&quot;font-size: 14px; text-align: left; color: rgb(108, 118, 125);&quot;&gt;■&lt;/span&gt;&lt;span style=&quot;font-size: 14px; text-align: left; color: rgb(108, 118, 125);&quot;&gt;■&lt;/span&gt;&lt;span style=&quot;font-size: 14px; text-align: left; color: rgb(108, 118, 125);&quot;&gt;■&lt;/span&gt;&lt;span style=&quot;font-size: 14px; text-align: left; color: rgb(108, 118, 125);&quot;&gt;■&lt;/span&gt;&lt;span style=&quot;font-size: 14px; text-align: left; color: rgb(108, 118, 125);&quot;&gt;■&lt;/span&gt;&lt;span style=&quot;font-size: 14px; text-align: left; color: rgb(108, 118, 125);&quot;&gt;■&lt;/span&gt;&lt;span style=&quot;font-size: 14px; text-align: left; color: rgb(108, 118, 125);&quot;&gt;■&lt;/span&gt;&lt;span style=&quot;font-size: 14px; text-align: left; color: rgb(108, 118, 125);&quot;&gt;■&lt;/span&gt;&lt;span style=&quot;font-size: 14px; text-align: left; color: rgb(108, 118, 125);&quot;&gt;■&lt;/span&gt;&lt;span style=&quot;font-size: 14px; text-align: left; color: rgb(108, 118, 125);&quot;&gt;■&lt;/span&gt;&lt;span style=&quot;font-size: 14px; text-align: left; color: rgb(108, 118, 125);&quot;&gt;■&lt;/span&gt;&lt;span style=&quot;font-size: 14px; text-align: left; color: rgb(108, 118, 125);&quot;&gt;■&lt;/span&gt;&lt;span style=&quot;font-size: 14px; text-align: left; color: rgb(108, 118, 125);&quot;&gt;■&lt;/span&gt;&lt;span style=&quot;font-size: 14px; text-align: left; color: rgb(108, 118, 125);&quot;&gt;■&lt;/span&gt;&lt;span style=&quot;font-size: 14px; text-align: left; color: rgb(108, 118, 125);&quot;&gt;■&lt;/span&gt;&lt;span style=&quot;font-size: 14px; text-align: left; color: rgb(108, 118, 125);&quot;&gt;■&lt;/span&gt;&lt;span style=&quot;font-size: 14px; text-align: left; color: rgb(108, 118, 125);&quot;&gt;■&lt;/span&gt;&lt;span style=&quot;font-size: 14px; text-align: left; color: rgb(108, 118, 125);&quot;&gt;■&lt;/span&gt;&lt;span style=&quot;font-size: 14px; text-align: left; color: rgb(108, 118, 125);&quot;&gt;■&lt;/span&gt;&lt;span style=&quot;font-size: 14px; text-align: left; color: rgb(108, 118, 125);&quot;&gt;■&lt;/span&gt;&lt;span style=&quot;font-size: 14px; text-align: left; color: rgb(108, 118, 125);&quot;&gt;■&lt;/span&gt;&lt;span style=&quot;font-size: 14px; text-align: left; color: rgb(108, 118, 125);&quot;&gt;■&lt;/span&gt;&lt;span style=&quot;font-size: 14px; text-align: left; color: rgb(108, 118, 125);&quot;&gt;■&lt;/span&gt;&lt;span style=&quot;font-size: 14px; text-align: left; color: rgb(108, 118, 125);&quot;&gt;■&lt;/span&gt;&lt;span style=&quot;font-size: 14px; text-align: left; color: rgb(108, 118, 125);&quot;&gt;■&lt;/span&gt;&lt;span style=&quot;font-size: 14px; text-align: left; color: rgb(108, 118, 125);&quot;&gt;■&lt;/span&gt;&lt;span style=&quot;font-size: 14px; text-align: left; color: rgb(108, 118, 125);&quot;&gt;■&lt;/span&gt;&lt;span style=&quot;font-size: 14px; text-align: left; color: rgb(108, 118, 125);&quot;&gt;■&lt;/span&gt;&lt;span style=&quot;font-size: 14px; text-align: left; color: rgb(108, 118, 125);&quot;&gt;■&lt;/span&gt;&lt;div&gt;&lt;span style=&quot;font-size: 14px; text-align: left; color: rgb(108, 118, 125);&quot;&gt;&lt;span style=&quot;color: rgb(108, 118, 125);&quot;&gt;■&lt;/span&gt;&lt;span style=&quot;color: rgb(108, 118, 125);&quot;&gt;■&lt;/span&gt;&lt;span style=&quot;color: rgb(108, 118, 125);&quot;&gt;■&lt;/span&gt;&lt;span style=&quot;color: rgb(108, 118, 125);&quot;&gt;■&lt;/span&gt;&lt;span style=&quot;color: rgb(108, 118, 125);&quot;&gt;■&lt;/span&gt;&lt;span style=&quot;color: rgb(108, 118, 125);&quot;&gt;■&lt;/span&gt;&lt;span style=&quot;color: rgb(108, 118, 125);&quot;&gt;■&lt;/span&gt;&lt;span style=&quot;color: rgb(108, 118, 125);&quot;&gt;■&lt;/span&gt;&lt;span style=&quot;color: rgb(108, 118, 125);&quot;&gt;■&lt;/span&gt;&lt;span style=&quot;color: rgb(108, 118, 125);&quot;&gt;■&lt;/span&gt;&lt;span style=&quot;color: rgb(108, 118, 125);&quot;&gt;■&lt;/span&gt;&lt;span style=&quot;color: rgb(108, 118, 125);&quot;&gt;■&lt;/span&gt;&lt;span style=&quot;color: rgb(108, 118, 125);&quot;&gt;■&lt;/span&gt;&lt;span style=&quot;color: rgb(108, 118, 125);&quot;&gt;■&lt;/span&gt;&lt;span style=&quot;color: rgb(108, 118, 125);&quot;&gt;■&lt;/span&gt;&lt;span style=&quot;color: rgb(108, 118, 125);&quot;&gt;■&lt;/span&gt;&lt;span style=&quot;color: rgb(108, 118, 125);&quot;&gt;■&lt;/span&gt;&lt;span style=&quot;color: rgb(108, 118, 125);&quot;&gt;■&lt;/span&gt;&lt;span style=&quot;color: rgb(108, 118, 125);&quot;&gt;■&lt;/span&gt;&lt;span style=&quot;color: rgb(108, 118, 125);&quot;&gt;■&lt;/span&gt;&lt;span style=&quot;color: rgb(108, 118, 125);&quot;&gt;■&lt;/span&gt;&lt;span style=&quot;color: rgb(108, 118, 125);&quot;&gt;■&lt;/span&gt;&lt;span style=&quot;color: rgb(108, 118, 125);&quot;&gt;■&lt;/span&gt;&lt;span style=&quot;color: rgb(108, 118, 125);&quot;&gt;■&lt;/span&gt;&lt;span style=&quot;color: rgb(108, 118, 125);&quot;&gt;■&lt;/span&gt;&lt;span style=&quot;color: rgb(108, 118, 125);&quot;&gt;■&lt;/span&gt;&lt;span style=&quot;color: rgb(108, 118, 125);&quot;&gt;■&lt;/span&gt;&lt;span style=&quot;color: rgb(108, 118, 125);&quot;&gt;■&lt;/span&gt;&lt;span style=&quot;color: rgb(108, 118, 125);&quot;&gt;■&lt;/span&gt;&lt;span style=&quot;color: rgb(108, 118, 125);&quot;&gt;■&lt;/span&gt;&lt;span style=&quot;color: rgb(108, 118, 125);&quot;&gt;■&lt;/span&gt;&lt;span style=&quot;color: rgb(108, 118, 125);&quot;&gt;■&lt;/span&gt;&lt;span style=&quot;color: rgb(108, 118, 125);&quot;&gt;■&lt;/span&gt;&lt;span style=&quot;color: rgb(108, 118, 125);&quot;&gt;■&lt;/span&gt;&lt;span style=&quot;color: rgb(108, 118, 125);&quot;&gt;■&lt;/span&gt;&lt;span style=&quot;color: rgb(108, 118, 125);&quot;&gt;■&lt;/span&gt;&lt;/span&gt;&lt;/div&gt;&lt;div&gt;&lt;span style=&quot;font-size: 14px; text-align: left; color: rgb(108, 118, 125);&quot;&gt;&lt;span style=&quot;color: rgb(108, 118, 125);&quot;&gt;&lt;span style=&quot;color: rgb(108, 118, 125);&quot;&gt;■&lt;/span&gt;&lt;span style=&quot;color: rgb(108, 118, 125);&quot;&gt;■&lt;/span&gt;&lt;span style=&quot;color: rgb(108, 118, 125);&quot;&gt;■&lt;/span&gt;&lt;span style=&quot;color: rgb(108, 118, 125);&quot;&gt;■&lt;/span&gt;&lt;span style=&quot;color: rgb(108, 118, 125);&quot;&gt;■&lt;/span&gt;&lt;span style=&quot;color: rgb(108, 118, 125);&quot;&gt;■&lt;/span&gt;&lt;span style=&quot;color: rgb(108, 118, 125);&quot;&gt;■&lt;/span&gt;&lt;span style=&quot;color: rgb(108, 118, 125);&quot;&gt;■&lt;/span&gt;&lt;span style=&quot;color: rgb(108, 118, 125);&quot;&gt;■&lt;/span&gt;&lt;span style=&quot;color: rgb(108, 118, 125);&quot;&gt;■&lt;/span&gt;&lt;span style=&quot;color: rgb(108, 118, 125);&quot;&gt;■&lt;/span&gt;&lt;span style=&quot;color: rgb(108, 118, 125);&quot;&gt;■&lt;/span&gt;&lt;span style=&quot;color: rgb(108, 118, 125);&quot;&gt;■&lt;/span&gt;&lt;span style=&quot;color: rgb(108, 118, 125);&quot;&gt;■&lt;/span&gt;&lt;span style=&quot;color: rgb(108, 118, 125);&quot;&gt;■&lt;/span&gt;&lt;span style=&quot;color: rgb(108, 118, 125);&quot;&gt;■&lt;/span&gt;&lt;span style=&quot;color: rgb(108, 118, 125);&quot;&gt;■&lt;/span&gt;&lt;span style=&quot;color: rgb(108, 118, 125);&quot;&gt;■&lt;/span&gt;&lt;span style=&quot;color: rgb(108, 118, 125);&quot;&gt;■&lt;/span&gt;&lt;span style=&quot;color: rgb(108, 118, 125);&quot;&gt;■&lt;/span&gt;&lt;span style=&quot;color: rgb(108, 118, 125);&quot;&gt;■&lt;/span&gt;&lt;span style=&quot;color: rgb(108, 118, 125);&quot;&gt;■&lt;/span&gt;&lt;span style=&quot;color: rgb(108, 118, 125);&quot;&gt;■&lt;/span&gt;&lt;span style=&quot;color: rgb(108, 118, 125);&quot;&gt;■&lt;/span&gt;&lt;span style=&quot;color: rgb(108, 118, 125);&quot;&gt;■&lt;/span&gt;&lt;span style=&quot;color: rgb(108, 118, 125);&quot;&gt;■&lt;/span&gt;&lt;span style=&quot;color: rgb(108, 118, 125);&quot;&gt;■&lt;/span&gt;&lt;span style=&quot;color: rgb(108, 118, 125);&quot;&gt;■&lt;/span&gt;&lt;span style=&quot;color: rgb(108, 118, 125);&quot;&gt;■&lt;/span&gt;&lt;span style=&quot;color: rgb(108, 118, 125);&quot;&gt;■&lt;/span&gt;&lt;span style=&quot;color: rgb(108, 118, 125);&quot;&gt;■&lt;/span&gt;&lt;span style=&quot;color: rgb(108, 118, 125);&quot;&gt;■&lt;/span&gt;&lt;span style=&quot;color: rgb(108, 118, 125);&quot;&gt;■&lt;/span&gt;&lt;span style=&quot;color: rgb(108, 118, 125);&quot;&gt;■&lt;/span&gt;&lt;span style=&quot;color: rgb(108, 118, 125);&quot;&gt;■&lt;/span&gt;&lt;span style=&quot;color: rgb(108, 118, 125);&quot;&gt;■&lt;/span&gt;&lt;/span&gt;&lt;/span&gt;&lt;/div&gt;&lt;div&gt;&lt;span style=&quot;font-size: 14px; text-align: left; color: rgb(108, 118, 125);&quot;&gt;&lt;span style=&quot;color: rgb(108, 118, 125);&quot;&gt;&lt;span style=&quot;color: rgb(108, 118, 125);&quot;&gt;&lt;span style=&quot;color: rgb(108, 118, 125);&quot;&gt;■&lt;/span&gt;&lt;span style=&quot;color: rgb(108, 118, 125);&quot;&gt;■&lt;/span&gt;&lt;span style=&quot;color: rgb(108, 118, 125);&quot;&gt;■&lt;/span&gt;&lt;span style=&quot;color: rgb(108, 118, 125);&quot;&gt;■&lt;/span&gt;&lt;span style=&quot;color: rgb(108, 118, 125);&quot;&gt;■&lt;/span&gt;&lt;span style=&quot;color: rgb(108, 118, 125);&quot;&gt;■&lt;/span&gt;&lt;span style=&quot;color: rgb(108, 118, 125);&quot;&gt;■&lt;/span&gt;&lt;span style=&quot;color: rgb(108, 118, 125);&quot;&gt;■&lt;/span&gt;&lt;span style=&quot;color: rgb(108, 118, 125);&quot;&gt;■&lt;/span&gt;&lt;span style=&quot;color: rgb(108, 118, 125);&quot;&gt;■&lt;/span&gt;&lt;span style=&quot;color: rgb(108, 118, 125);&quot;&gt;■&lt;/span&gt;&lt;span style=&quot;color: rgb(108, 118, 125);&quot;&gt;■&lt;/span&gt;&lt;span style=&quot;color: rgb(108, 118, 125);&quot;&gt;■&lt;/span&gt;&lt;span style=&quot;color: rgb(108, 118, 125);&quot;&gt;■&lt;/span&gt;&lt;span style=&quot;color: rgb(108, 118, 125);&quot;&gt;■&lt;/span&gt;&lt;span style=&quot;color: rgb(108, 118, 125);&quot;&gt;■&lt;/span&gt;&lt;span style=&quot;color: rgb(108, 118, 125);&quot;&gt;■&lt;/span&gt;&lt;span style=&quot;color: rgb(108, 118, 125);&quot;&gt;■&lt;/span&gt;&lt;span style=&quot;color: rgb(108, 118, 125);&quot;&gt;■&lt;/span&gt;&lt;span style=&quot;color: rgb(108, 118, 125);&quot;&gt;■&lt;/span&gt;&lt;span style=&quot;color: rgb(108, 118, 125);&quot;&gt;■&lt;/span&gt;&lt;span style=&quot;color: rgb(108, 118, 125);&quot;&gt;■&lt;/span&gt;&lt;span style=&quot;color: rgb(108, 118, 125);&quot;&gt;■&lt;/span&gt;&lt;span style=&quot;color: rgb(108, 118, 125);&quot;&gt;■&lt;/span&gt;&lt;span style=&quot;color: rgb(108, 118, 125);&quot;&gt;■&lt;/span&gt;&lt;span style=&quot;color: rgb(108, 118, 125);&quot;&gt;■&lt;/span&gt;&lt;span style=&quot;color: rgb(108, 118, 125);&quot;&gt;■&lt;/span&gt;&lt;span style=&quot;color: rgb(108, 118, 125);&quot;&gt;■&lt;/span&gt;&lt;span style=&quot;color: rgb(108, 118, 125);&quot;&gt;■&lt;/span&gt;&lt;span style=&quot;color: rgb(108, 118, 125);&quot;&gt;■&lt;/span&gt;&lt;span style=&quot;color: rgb(108, 118, 125);&quot;&gt;■&lt;/span&gt;&lt;span style=&quot;color: rgb(108, 118, 125);&quot;&gt;■&lt;/span&gt;&lt;span style=&quot;color: rgb(108, 118, 125);&quot;&gt;■&lt;/span&gt;&lt;span style=&quot;color: rgb(108, 118, 125);&quot;&gt;■&lt;/span&gt;&lt;span style=&quot;color: rgb(108, 118, 125);&quot;&gt;■&lt;/span&gt;&lt;span style=&quot;color: rgb(108, 118, 125);&quot;&gt;■&lt;/span&gt;&lt;/span&gt;&lt;/span&gt;&lt;/span&gt;&lt;/div&gt;" style="rounded=0;whiteSpace=wrap;html=1;" parent="1" vertex="1">
                    <mxGeometry x="80.86000000000004" y="580" width="385" height="80" as="geometry"/>
                </mxCell>
                <mxCell id="254" value="&lt;span style=&quot;font-size: 14px; text-align: left; color: rgb(108, 118, 125);&quot;&gt;■&lt;/span&gt;&lt;span style=&quot;font-size: 14px; text-align: left; color: rgb(108, 118, 125);&quot;&gt;■&lt;/span&gt;&lt;span style=&quot;font-size: 14px; text-align: left; color: rgb(108, 118, 125);&quot;&gt;■&lt;/span&gt;&lt;span style=&quot;font-size: 14px; text-align: left; color: rgb(108, 118, 125);&quot;&gt;■&lt;/span&gt;&lt;span style=&quot;font-size: 14px; text-align: left; color: rgb(108, 118, 125);&quot;&gt;■&lt;/span&gt;&lt;span style=&quot;font-size: 14px; text-align: left; color: rgb(108, 118, 125);&quot;&gt;■&lt;/span&gt;&lt;span style=&quot;font-size: 14px; text-align: left; color: rgb(108, 118, 125);&quot;&gt;■&lt;/span&gt;&lt;span style=&quot;font-size: 14px; text-align: left; color: rgb(108, 118, 125);&quot;&gt;■&lt;/span&gt;&lt;span style=&quot;font-size: 14px; text-align: left; color: rgb(108, 118, 125);&quot;&gt;■&lt;/span&gt;&lt;span style=&quot;font-size: 14px; text-align: left; color: rgb(108, 118, 125);&quot;&gt;■&lt;/span&gt;&lt;span style=&quot;font-size: 14px; text-align: left; color: rgb(108, 118, 125);&quot;&gt;■&lt;/span&gt;&lt;span style=&quot;font-size: 14px; text-align: left; color: rgb(108, 118, 125);&quot;&gt;■&lt;/span&gt;&lt;span style=&quot;font-size: 14px; text-align: left; color: rgb(108, 118, 125);&quot;&gt;■&lt;/span&gt;&lt;span style=&quot;font-size: 14px; text-align: left; color: rgb(108, 118, 125);&quot;&gt;■&lt;/span&gt;&lt;span style=&quot;font-size: 14px; text-align: left; color: rgb(108, 118, 125);&quot;&gt;■&lt;/span&gt;&lt;span style=&quot;font-size: 14px; text-align: left; color: rgb(108, 118, 125);&quot;&gt;■&lt;/span&gt;&lt;span style=&quot;font-size: 14px; text-align: left; color: rgb(108, 118, 125);&quot;&gt;■&lt;/span&gt;&lt;span style=&quot;font-size: 14px; text-align: left; color: rgb(108, 118, 125);&quot;&gt;■&lt;/span&gt;&lt;span style=&quot;font-size: 14px; text-align: left; color: rgb(108, 118, 125);&quot;&gt;■&lt;/span&gt;&lt;span style=&quot;font-size: 14px; text-align: left; color: rgb(108, 118, 125);&quot;&gt;■&lt;/span&gt;&lt;span style=&quot;font-size: 14px; text-align: left; color: rgb(108, 118, 125);&quot;&gt;■&lt;/span&gt;&lt;span style=&quot;font-size: 14px; text-align: left; color: rgb(108, 118, 125);&quot;&gt;■&lt;/span&gt;&lt;span style=&quot;font-size: 14px; text-align: left; color: rgb(108, 118, 125);&quot;&gt;■&lt;/span&gt;&lt;span style=&quot;font-size: 14px; text-align: left; color: rgb(108, 118, 125);&quot;&gt;■&lt;/span&gt;&lt;span style=&quot;font-size: 14px; text-align: left; color: rgb(108, 118, 125);&quot;&gt;■&lt;/span&gt;&lt;span style=&quot;font-size: 14px; text-align: left; color: rgb(108, 118, 125);&quot;&gt;■&lt;/span&gt;&lt;span style=&quot;font-size: 14px; text-align: left; color: rgb(108, 118, 125);&quot;&gt;■&lt;/span&gt;&lt;span style=&quot;font-size: 14px; text-align: left; color: rgb(108, 118, 125);&quot;&gt;■&lt;/span&gt;&lt;span style=&quot;font-size: 14px; text-align: left; color: rgb(108, 118, 125);&quot;&gt;■&lt;/span&gt;&lt;span style=&quot;font-size: 14px; text-align: left; color: rgb(108, 118, 125);&quot;&gt;■&lt;/span&gt;&lt;span style=&quot;font-size: 14px; text-align: left; color: rgb(108, 118, 125);&quot;&gt;■&lt;/span&gt;&lt;span style=&quot;font-size: 14px; text-align: left; color: rgb(108, 118, 125);&quot;&gt;■&lt;/span&gt;&lt;span style=&quot;font-size: 14px; text-align: left; color: rgb(108, 118, 125);&quot;&gt;■&lt;/span&gt;&lt;span style=&quot;font-size: 14px; text-align: left; color: rgb(108, 118, 125);&quot;&gt;■&lt;/span&gt;&lt;span style=&quot;font-size: 14px; text-align: left; color: rgb(108, 118, 125);&quot;&gt;■&lt;/span&gt;&lt;span style=&quot;font-size: 14px; text-align: left; color: rgb(108, 118, 125);&quot;&gt;■&lt;/span&gt;&lt;div&gt;&lt;span style=&quot;font-size: 14px; text-align: left; color: rgb(108, 118, 125);&quot;&gt;&lt;span style=&quot;color: rgb(108, 118, 125);&quot;&gt;■&lt;/span&gt;&lt;span style=&quot;color: rgb(108, 118, 125);&quot;&gt;■&lt;/span&gt;&lt;span style=&quot;color: rgb(108, 118, 125);&quot;&gt;■&lt;/span&gt;&lt;span style=&quot;color: rgb(108, 118, 125);&quot;&gt;■&lt;/span&gt;&lt;span style=&quot;color: rgb(108, 118, 125);&quot;&gt;■&lt;/span&gt;&lt;span style=&quot;color: rgb(108, 118, 125);&quot;&gt;■&lt;/span&gt;&lt;span style=&quot;color: rgb(108, 118, 125);&quot;&gt;■&lt;/span&gt;&lt;span style=&quot;color: rgb(108, 118, 125);&quot;&gt;■&lt;/span&gt;&lt;span style=&quot;color: rgb(108, 118, 125);&quot;&gt;■&lt;/span&gt;&lt;span style=&quot;color: rgb(108, 118, 125);&quot;&gt;■&lt;/span&gt;&lt;span style=&quot;color: rgb(108, 118, 125);&quot;&gt;■&lt;/span&gt;&lt;span style=&quot;color: rgb(108, 118, 125);&quot;&gt;■&lt;/span&gt;&lt;span style=&quot;color: rgb(108, 118, 125);&quot;&gt;■&lt;/span&gt;&lt;span style=&quot;color: rgb(108, 118, 125);&quot;&gt;■&lt;/span&gt;&lt;span style=&quot;color: rgb(108, 118, 125);&quot;&gt;■&lt;/span&gt;&lt;span style=&quot;color: rgb(108, 118, 125);&quot;&gt;■&lt;/span&gt;&lt;span style=&quot;color: rgb(108, 118, 125);&quot;&gt;■&lt;/span&gt;&lt;span style=&quot;color: rgb(108, 118, 125);&quot;&gt;■&lt;/span&gt;&lt;span style=&quot;color: rgb(108, 118, 125);&quot;&gt;■&lt;/span&gt;&lt;span style=&quot;color: rgb(108, 118, 125);&quot;&gt;■&lt;/span&gt;&lt;span style=&quot;color: rgb(108, 118, 125);&quot;&gt;■&lt;/span&gt;&lt;span style=&quot;color: rgb(108, 118, 125);&quot;&gt;■&lt;/span&gt;&lt;span style=&quot;color: rgb(108, 118, 125);&quot;&gt;■&lt;/span&gt;&lt;span style=&quot;color: rgb(108, 118, 125);&quot;&gt;■&lt;/span&gt;&lt;span style=&quot;color: rgb(108, 118, 125);&quot;&gt;■&lt;/span&gt;&lt;span style=&quot;color: rgb(108, 118, 125);&quot;&gt;■&lt;/span&gt;&lt;span style=&quot;color: rgb(108, 118, 125);&quot;&gt;■&lt;/span&gt;&lt;span style=&quot;color: rgb(108, 118, 125);&quot;&gt;■&lt;/span&gt;&lt;span style=&quot;color: rgb(108, 118, 125);&quot;&gt;■&lt;/span&gt;&lt;span style=&quot;color: rgb(108, 118, 125);&quot;&gt;■&lt;/span&gt;&lt;span style=&quot;color: rgb(108, 118, 125);&quot;&gt;■&lt;/span&gt;&lt;span style=&quot;color: rgb(108, 118, 125);&quot;&gt;■&lt;/span&gt;&lt;span style=&quot;color: rgb(108, 118, 125);&quot;&gt;■&lt;/span&gt;&lt;span style=&quot;color: rgb(108, 118, 125);&quot;&gt;■&lt;/span&gt;&lt;span style=&quot;color: rgb(108, 118, 125);&quot;&gt;■&lt;/span&gt;&lt;span style=&quot;color: rgb(108, 118, 125);&quot;&gt;■&lt;/span&gt;&lt;/span&gt;&lt;/div&gt;&lt;div&gt;&lt;span style=&quot;font-size: 14px; text-align: left; color: rgb(108, 118, 125);&quot;&gt;&lt;span style=&quot;color: rgb(108, 118, 125);&quot;&gt;&lt;span style=&quot;color: rgb(108, 118, 125);&quot;&gt;■&lt;/span&gt;&lt;span style=&quot;color: rgb(108, 118, 125);&quot;&gt;■&lt;/span&gt;&lt;span style=&quot;color: rgb(108, 118, 125);&quot;&gt;■&lt;/span&gt;&lt;span style=&quot;color: rgb(108, 118, 125);&quot;&gt;■&lt;/span&gt;&lt;span style=&quot;color: rgb(108, 118, 125);&quot;&gt;■&lt;/span&gt;&lt;span style=&quot;color: rgb(108, 118, 125);&quot;&gt;■&lt;/span&gt;&lt;span style=&quot;color: rgb(108, 118, 125);&quot;&gt;■&lt;/span&gt;&lt;span style=&quot;color: rgb(108, 118, 125);&quot;&gt;■&lt;/span&gt;&lt;span style=&quot;color: rgb(108, 118, 125);&quot;&gt;■&lt;/span&gt;&lt;span style=&quot;color: rgb(108, 118, 125);&quot;&gt;■&lt;/span&gt;&lt;span style=&quot;color: rgb(108, 118, 125);&quot;&gt;■&lt;/span&gt;&lt;span style=&quot;color: rgb(108, 118, 125);&quot;&gt;■&lt;/span&gt;&lt;span style=&quot;color: rgb(108, 118, 125);&quot;&gt;■&lt;/span&gt;&lt;span style=&quot;color: rgb(108, 118, 125);&quot;&gt;■&lt;/span&gt;&lt;span style=&quot;color: rgb(108, 118, 125);&quot;&gt;■&lt;/span&gt;&lt;span style=&quot;color: rgb(108, 118, 125);&quot;&gt;■&lt;/span&gt;&lt;span style=&quot;color: rgb(108, 118, 125);&quot;&gt;■&lt;/span&gt;&lt;span style=&quot;color: rgb(108, 118, 125);&quot;&gt;■&lt;/span&gt;&lt;span style=&quot;color: rgb(108, 118, 125);&quot;&gt;■&lt;/span&gt;&lt;span style=&quot;color: rgb(108, 118, 125);&quot;&gt;■&lt;/span&gt;&lt;span style=&quot;color: rgb(108, 118, 125);&quot;&gt;■&lt;/span&gt;&lt;span style=&quot;color: rgb(108, 118, 125);&quot;&gt;■&lt;/span&gt;&lt;span style=&quot;color: rgb(108, 118, 125);&quot;&gt;■&lt;/span&gt;&lt;span style=&quot;color: rgb(108, 118, 125);&quot;&gt;■&lt;/span&gt;&lt;span style=&quot;color: rgb(108, 118, 125);&quot;&gt;■&lt;/span&gt;&lt;span style=&quot;color: rgb(108, 118, 125);&quot;&gt;■&lt;/span&gt;&lt;span style=&quot;color: rgb(108, 118, 125);&quot;&gt;■&lt;/span&gt;&lt;span style=&quot;color: rgb(108, 118, 125);&quot;&gt;■&lt;/span&gt;&lt;span style=&quot;color: rgb(108, 118, 125);&quot;&gt;■&lt;/span&gt;&lt;span style=&quot;color: rgb(108, 118, 125);&quot;&gt;■&lt;/span&gt;&lt;span style=&quot;color: rgb(108, 118, 125);&quot;&gt;■&lt;/span&gt;&lt;span style=&quot;color: rgb(108, 118, 125);&quot;&gt;■&lt;/span&gt;&lt;span style=&quot;color: rgb(108, 118, 125);&quot;&gt;■&lt;/span&gt;&lt;span style=&quot;color: rgb(108, 118, 125);&quot;&gt;■&lt;/span&gt;&lt;span style=&quot;color: rgb(108, 118, 125);&quot;&gt;■&lt;/span&gt;&lt;span style=&quot;color: rgb(108, 118, 125);&quot;&gt;■&lt;/span&gt;&lt;/span&gt;&lt;/span&gt;&lt;/div&gt;&lt;div&gt;&lt;span style=&quot;font-size: 14px; text-align: left; color: rgb(108, 118, 125);&quot;&gt;&lt;span style=&quot;color: rgb(108, 118, 125);&quot;&gt;&lt;span style=&quot;color: rgb(108, 118, 125);&quot;&gt;&lt;span style=&quot;color: rgb(108, 118, 125);&quot;&gt;■&lt;/span&gt;&lt;span style=&quot;color: rgb(108, 118, 125);&quot;&gt;■&lt;/span&gt;&lt;span style=&quot;color: rgb(108, 118, 125);&quot;&gt;■&lt;/span&gt;&lt;span style=&quot;color: rgb(108, 118, 125);&quot;&gt;■&lt;/span&gt;&lt;span style=&quot;color: rgb(108, 118, 125);&quot;&gt;■&lt;/span&gt;&lt;span style=&quot;color: rgb(108, 118, 125);&quot;&gt;■&lt;/span&gt;&lt;span style=&quot;color: rgb(108, 118, 125);&quot;&gt;■&lt;/span&gt;&lt;span style=&quot;color: rgb(108, 118, 125);&quot;&gt;■&lt;/span&gt;&lt;span style=&quot;color: rgb(108, 118, 125);&quot;&gt;■&lt;/span&gt;&lt;span style=&quot;color: rgb(108, 118, 125);&quot;&gt;■&lt;/span&gt;&lt;span style=&quot;color: rgb(108, 118, 125);&quot;&gt;■&lt;/span&gt;&lt;span style=&quot;color: rgb(108, 118, 125);&quot;&gt;■&lt;/span&gt;&lt;span style=&quot;color: rgb(108, 118, 125);&quot;&gt;■&lt;/span&gt;&lt;span style=&quot;color: rgb(108, 118, 125);&quot;&gt;■&lt;/span&gt;&lt;span style=&quot;color: rgb(108, 118, 125);&quot;&gt;■&lt;/span&gt;&lt;span style=&quot;color: rgb(108, 118, 125);&quot;&gt;■&lt;/span&gt;&lt;span style=&quot;color: rgb(108, 118, 125);&quot;&gt;■&lt;/span&gt;&lt;span style=&quot;color: rgb(108, 118, 125);&quot;&gt;■&lt;/span&gt;&lt;span style=&quot;color: rgb(108, 118, 125);&quot;&gt;■&lt;/span&gt;&lt;span style=&quot;color: rgb(108, 118, 125);&quot;&gt;■&lt;/span&gt;&lt;span style=&quot;color: rgb(108, 118, 125);&quot;&gt;■&lt;/span&gt;&lt;span style=&quot;color: rgb(108, 118, 125);&quot;&gt;■&lt;/span&gt;&lt;span style=&quot;color: rgb(108, 118, 125);&quot;&gt;■&lt;/span&gt;&lt;span style=&quot;color: rgb(108, 118, 125);&quot;&gt;■&lt;/span&gt;&lt;span style=&quot;color: rgb(108, 118, 125);&quot;&gt;■&lt;/span&gt;&lt;span style=&quot;color: rgb(108, 118, 125);&quot;&gt;■&lt;/span&gt;&lt;span style=&quot;color: rgb(108, 118, 125);&quot;&gt;■&lt;/span&gt;&lt;span style=&quot;color: rgb(108, 118, 125);&quot;&gt;■&lt;/span&gt;&lt;span style=&quot;color: rgb(108, 118, 125);&quot;&gt;■&lt;/span&gt;&lt;span style=&quot;color: rgb(108, 118, 125);&quot;&gt;■&lt;/span&gt;&lt;span style=&quot;color: rgb(108, 118, 125);&quot;&gt;■&lt;/span&gt;&lt;span style=&quot;color: rgb(108, 118, 125);&quot;&gt;■&lt;/span&gt;&lt;span style=&quot;color: rgb(108, 118, 125);&quot;&gt;■&lt;/span&gt;&lt;span style=&quot;color: rgb(108, 118, 125);&quot;&gt;■&lt;/span&gt;&lt;span style=&quot;color: rgb(108, 118, 125);&quot;&gt;■&lt;/span&gt;&lt;span style=&quot;color: rgb(108, 118, 125);&quot;&gt;■&lt;/span&gt;&lt;/span&gt;&lt;/span&gt;&lt;/span&gt;&lt;/div&gt;" style="rounded=0;whiteSpace=wrap;html=1;" parent="1" vertex="1">
                    <mxGeometry x="80.86000000000004" y="686" width="385" height="80" as="geometry"/>
                </mxCell>
                <UserObject label="%date{ddd mmm dd yyyy HH:MM:ss}%" placeholders="1" id="255">
                    <mxCell style="text;html=1;strokeColor=none;fillColor=none;align=center;verticalAlign=middle;whiteSpace=wrap;overflow=hidden;" parent="1" vertex="1">
                        <mxGeometry x="309.15" y="660" width="160" height="20" as="geometry"/>
                    </mxCell>
                </UserObject>
                <UserObject label="%date{ddd mmm dd yyyy HH:MM:ss}%" placeholders="1" id="256">
                    <mxCell style="text;html=1;strokeColor=none;fillColor=none;align=center;verticalAlign=middle;whiteSpace=wrap;overflow=hidden;" parent="1" vertex="1">
                        <mxGeometry x="305.86" y="770" width="160" height="20" as="geometry"/>
                    </mxCell>
                </UserObject>
            </root>
        </mxGraphModel>
    </diagram>
</mxfile>
